<mxfile>
    <diagram id="hsC_rezyiq_M3rglXyyr" name="Page-1">
        <mxGraphModel dx="13119" dy="8120" grid="1" gridSize="10" guides="1" tooltips="1" connect="1" arrows="1" fold="1" page="1" pageScale="1" pageWidth="2339" pageHeight="3300" math="0" shadow="0">
            <root>
                <mxCell id="0"/>
                <mxCell id="1" parent="0"/>
                <mxCell id="2" value="" style="endArrow=none;html=1;strokeWidth=4;" edge="1" parent="1">
                    <mxGeometry width="50" height="50" relative="1" as="geometry">
                        <mxPoint x="-1848" y="1472.5" as="sourcePoint"/>
                        <mxPoint x="-1950" y="1314.5" as="targetPoint"/>
                    </mxGeometry>
                </mxCell>
                <mxCell id="3" value="" style="endArrow=none;html=1;strokeWidth=4;" edge="1" parent="1">
                    <mxGeometry width="50" height="50" relative="1" as="geometry">
                        <mxPoint x="-2091" y="1644.5" as="sourcePoint"/>
                        <mxPoint x="-1714.000000000001" y="1367.5" as="targetPoint"/>
                        <Array as="points">
                            <mxPoint x="-1828" y="1462.5"/>
                        </Array>
                    </mxGeometry>
                </mxCell>
                <mxCell id="4" value="" style="endArrow=none;html=1;strokeWidth=4;" edge="1" parent="1">
                    <mxGeometry width="50" height="50" relative="1" as="geometry">
                        <mxPoint x="-1715" y="1370.5" as="sourcePoint"/>
                        <mxPoint x="-1868" y="1132.5" as="targetPoint"/>
                    </mxGeometry>
                </mxCell>
                <mxCell id="5" value="" style="endArrow=none;html=1;strokeWidth=4;exitX=0.5;exitY=0;exitDx=0;exitDy=0;" edge="1" parent="1" source="122">
                    <mxGeometry width="50" height="50" relative="1" as="geometry">
                        <mxPoint x="-1801" y="1552.5" as="sourcePoint"/>
                        <mxPoint x="-1845" y="1475.5" as="targetPoint"/>
                    </mxGeometry>
                </mxCell>
                <mxCell id="6" value="" style="verticalLabelPosition=bottom;align=center;html=1;verticalAlign=top;pointerEvents=1;dashed=0;shape=mxgraph.pid2valves.valve;valveType=gate;defState=closed;strokeWidth=4;fillColor=none;fontSize=17;rotation=-30;strokeColor=#0000FF;" vertex="1" parent="1">
                    <mxGeometry x="-1831.54" y="1513.5" width="37.54" height="22.5" as="geometry"/>
                </mxCell>
                <mxCell id="7" value="&lt;font style=&quot;font-size: 79px&quot;&gt;SECTOR - VI&lt;/font&gt;" style="text;html=1;strokeColor=none;align=center;verticalAlign=middle;whiteSpace=wrap;rounded=0;fontSize=50;fontStyle=1;strokeWidth=4;shadow=1;" vertex="1" parent="1">
                    <mxGeometry x="-1961" y="472.5" width="520" height="78" as="geometry"/>
                </mxCell>
                <mxCell id="8" value="Actualizado: 04/05/2021" style="text;html=1;strokeColor=none;align=center;verticalAlign=middle;whiteSpace=wrap;rounded=0;fontSize=50;fontStyle=1;strokeWidth=4;shadow=1;" vertex="1" parent="1">
                    <mxGeometry x="-1988" y="562.5" width="590" height="70" as="geometry"/>
                </mxCell>
                <mxCell id="9" value="&lt;b style=&quot;font-size: 33px;&quot;&gt;402&lt;/b&gt;" style="text;html=1;strokeColor=none;fillColor=none;align=center;verticalAlign=middle;whiteSpace=wrap;rounded=0;fontSize=33;strokeWidth=4;" vertex="1" parent="1">
                    <mxGeometry x="-1883" y="1192.5" width="40" height="20" as="geometry"/>
                </mxCell>
                <mxCell id="10" value="403" style="text;html=1;strokeColor=none;fillColor=none;align=center;verticalAlign=middle;whiteSpace=wrap;rounded=0;fontSize=33;fontStyle=1;strokeWidth=4;" vertex="1" parent="1">
                    <mxGeometry x="-1834" y="1145.5" width="40" height="20" as="geometry"/>
                </mxCell>
                <mxCell id="11" value="404" style="text;html=1;strokeColor=none;fillColor=none;align=center;verticalAlign=middle;whiteSpace=wrap;rounded=0;fontSize=33;fontStyle=1;strokeWidth=4;" vertex="1" parent="1">
                    <mxGeometry x="-1797" y="1197.5" width="40" height="20" as="geometry"/>
                </mxCell>
                <mxCell id="12" value="406" style="text;html=1;strokeColor=none;fillColor=none;align=center;verticalAlign=middle;whiteSpace=wrap;rounded=0;fontSize=33;fontStyle=1;strokeWidth=4;" vertex="1" parent="1">
                    <mxGeometry x="-1768" y="1229.5" width="40" height="20" as="geometry"/>
                </mxCell>
                <mxCell id="13" value="405" style="text;html=1;strokeColor=none;fillColor=none;align=center;verticalAlign=middle;whiteSpace=wrap;rounded=0;fontSize=33;fontStyle=1;strokeWidth=4;" vertex="1" parent="1">
                    <mxGeometry x="-1831.54" y="1282.5" width="40" height="20" as="geometry"/>
                </mxCell>
                <mxCell id="14" value="408" style="text;html=1;strokeColor=none;fillColor=none;align=center;verticalAlign=middle;whiteSpace=wrap;rounded=0;fontSize=33;fontStyle=1;strokeWidth=4;" vertex="1" parent="1">
                    <mxGeometry x="-1808" y="1382.5" width="40" height="20" as="geometry"/>
                </mxCell>
                <mxCell id="15" value="411" style="text;html=1;strokeColor=none;fillColor=none;align=center;verticalAlign=middle;whiteSpace=wrap;rounded=0;fontSize=33;fontStyle=1;strokeWidth=4;" vertex="1" parent="1">
                    <mxGeometry x="-1938" y="1288.5" width="40" height="20" as="geometry"/>
                </mxCell>
                <mxCell id="16" value="420" style="text;html=1;strokeColor=none;fillColor=none;align=center;verticalAlign=middle;whiteSpace=wrap;rounded=0;fontSize=33;fontStyle=1;strokeWidth=4;" vertex="1" parent="1">
                    <mxGeometry x="-1908" y="1342.5" width="40" height="20" as="geometry"/>
                </mxCell>
                <mxCell id="17" value="414" style="text;html=1;strokeColor=none;fillColor=none;align=center;verticalAlign=middle;whiteSpace=wrap;rounded=0;fontSize=33;fontStyle=1;strokeWidth=4;" vertex="1" parent="1">
                    <mxGeometry x="-2008" y="1522.5" width="40" height="20" as="geometry"/>
                </mxCell>
                <mxCell id="18" value="415" style="text;html=1;strokeColor=none;fillColor=none;align=center;verticalAlign=middle;whiteSpace=wrap;rounded=0;fontSize=33;fontStyle=1;strokeWidth=4;" vertex="1" parent="1">
                    <mxGeometry x="-2055" y="1553.5" width="40" height="20" as="geometry"/>
                </mxCell>
                <mxCell id="19" value="416" style="text;html=1;strokeColor=none;fillColor=none;align=center;verticalAlign=middle;whiteSpace=wrap;rounded=0;fontSize=33;fontStyle=1;strokeWidth=4;" vertex="1" parent="1">
                    <mxGeometry x="-2101" y="1590.5" width="40" height="20" as="geometry"/>
                </mxCell>
                <mxCell id="20" value="417" style="text;html=1;strokeColor=none;fillColor=none;align=center;verticalAlign=middle;whiteSpace=wrap;rounded=0;fontSize=33;fontStyle=1;strokeWidth=4;" vertex="1" parent="1">
                    <mxGeometry x="-2148" y="1622.5" width="40" height="20" as="geometry"/>
                </mxCell>
                <mxCell id="21" value="" style="endArrow=none;html=1;strokeWidth=4;fontSize=33;entryX=0.5;entryY=1;entryDx=0;entryDy=0;" edge="1" parent="1" target="122">
                    <mxGeometry width="50" height="50" relative="1" as="geometry">
                        <mxPoint x="-752" y="506.5" as="sourcePoint"/>
                        <mxPoint x="-1787" y="1612.5" as="targetPoint"/>
                        <Array as="points">
                            <mxPoint x="-818" y="742.5"/>
                            <mxPoint x="-898" y="952.5"/>
                            <mxPoint x="-918" y="1102.5"/>
                            <mxPoint x="-958" y="1382.5"/>
                            <mxPoint x="-958" y="1542.5"/>
                            <mxPoint x="-1278" y="1542.5"/>
                            <mxPoint x="-1278" y="1622.5"/>
                            <mxPoint x="-1281" y="1662.5"/>
                            <mxPoint x="-1301" y="1732.5"/>
                            <mxPoint x="-1311" y="1812.5"/>
                            <mxPoint x="-1301" y="1882.5"/>
                            <mxPoint x="-1311" y="1902.5"/>
                            <mxPoint x="-1631" y="1842.5"/>
                            <mxPoint x="-1651" y="1822.5"/>
                            <mxPoint x="-1691" y="1832.5"/>
                            <mxPoint x="-1824" y="1812.5"/>
                        </Array>
                    </mxGeometry>
                </mxCell>
                <mxCell id="22" value="" style="endArrow=none;html=1;strokeWidth=4;fontSize=33;" edge="1" parent="1">
                    <mxGeometry width="50" height="50" relative="1" as="geometry">
                        <mxPoint x="-760" y="542.5" as="sourcePoint"/>
                        <mxPoint x="-636" y="537.5" as="targetPoint"/>
                    </mxGeometry>
                </mxCell>
                <mxCell id="23" value="" style="endArrow=none;html=1;strokeWidth=4;fontSize=33;" edge="1" parent="1">
                    <mxGeometry width="50" height="50" relative="1" as="geometry">
                        <mxPoint x="-1281" y="1662.5" as="sourcePoint"/>
                        <mxPoint x="-928" y="1662.5" as="targetPoint"/>
                    </mxGeometry>
                </mxCell>
                <mxCell id="24" value="" style="verticalLabelPosition=bottom;align=center;html=1;verticalAlign=top;pointerEvents=1;dashed=0;shape=mxgraph.pid2valves.valve;valveType=gate;defState=closed;strokeWidth=4;fillColor=none;fontSize=17;rotation=338;strokeColor=#0000FF;" vertex="1" parent="1">
                    <mxGeometry x="-1312" y="1421.25" width="37.54" height="22.5" as="geometry"/>
                </mxCell>
                <mxCell id="25" value="" style="verticalLabelPosition=bottom;align=center;html=1;verticalAlign=top;pointerEvents=1;dashed=0;shape=mxgraph.pid2valves.valve;valveType=gate;defState=closed;strokeWidth=4;fillColor=none;fontSize=17;rotation=-90;" vertex="1" parent="1">
                    <mxGeometry x="-1268" y="1652.5" width="37.54" height="22.5" as="geometry"/>
                </mxCell>
                <mxCell id="26" value="" style="verticalLabelPosition=bottom;align=center;html=1;verticalAlign=top;pointerEvents=1;dashed=0;shape=mxgraph.pid2valves.valve;valveType=gate;defState=closed;strokeWidth=4;fillColor=none;fontSize=17;rotation=-90;" vertex="1" parent="1">
                    <mxGeometry x="-1274.54" y="1531.5" width="37.54" height="22.5" as="geometry"/>
                </mxCell>
                <mxCell id="27" value="" style="verticalLabelPosition=bottom;align=center;html=1;verticalAlign=top;pointerEvents=1;dashed=0;shape=mxgraph.pid2valves.valve;valveType=gate;defState=closed;strokeWidth=4;fillColor=none;fontSize=17;rotation=-90;strokeColor=#0000FF;" vertex="1" parent="1">
                    <mxGeometry x="-891" y="943.5" width="37.54" height="22.5" as="geometry"/>
                </mxCell>
                <mxCell id="28" value="" style="verticalLabelPosition=bottom;align=center;html=1;verticalAlign=top;pointerEvents=1;dashed=0;shape=mxgraph.pid2valves.valve;valveType=gate;defState=closed;strokeWidth=4;fillColor=none;fontSize=17;rotation=-90;strokeColor=#0000FF;" vertex="1" parent="1">
                    <mxGeometry x="-1624.77" y="1700.75" width="37.54" height="22.5" as="geometry"/>
                </mxCell>
                <mxCell id="29" value="" style="verticalLabelPosition=bottom;align=center;html=1;verticalAlign=top;pointerEvents=1;dashed=0;shape=mxgraph.pid2valves.valve;valveType=gate;defState=closed;strokeWidth=4;fillColor=none;fontSize=17;rotation=15;strokeColor=#0000FF;" vertex="1" parent="1">
                    <mxGeometry x="-1667" y="1794.5" width="37.54" height="22.5" as="geometry"/>
                </mxCell>
                <mxCell id="30" value="" style="verticalLabelPosition=bottom;align=center;html=1;verticalAlign=top;pointerEvents=1;dashed=0;shape=mxgraph.pid2valves.valve;valveType=gate;defState=closed;strokeWidth=4;fillColor=none;fontSize=17;rotation=-90;" vertex="1" parent="1">
                    <mxGeometry x="-464.46000000000004" y="1024.5" width="37.54" height="22.5" as="geometry"/>
                </mxCell>
                <mxCell id="31" value="" style="endArrow=none;html=1;strokeWidth=4;fontSize=33;" edge="1" parent="1">
                    <mxGeometry width="50" height="50" relative="1" as="geometry">
                        <mxPoint x="-1652" y="1822.5" as="sourcePoint"/>
                        <mxPoint x="-1411" y="1016.5" as="targetPoint"/>
                        <Array as="points">
                            <mxPoint x="-1528" y="1152.5"/>
                            <mxPoint x="-1468" y="1122.5"/>
                            <mxPoint x="-1438" y="1082.5"/>
                            <mxPoint x="-1418" y="1052.5"/>
                        </Array>
                    </mxGeometry>
                </mxCell>
                <mxCell id="32" value="210" style="text;html=1;strokeColor=none;fillColor=none;align=center;verticalAlign=middle;whiteSpace=wrap;rounded=0;fontSize=33;fontStyle=1;strokeWidth=4;" vertex="1" parent="1">
                    <mxGeometry x="-1402" y="986" width="40" height="20" as="geometry"/>
                </mxCell>
                <mxCell id="33" value="209" style="text;html=1;strokeColor=none;fillColor=none;align=center;verticalAlign=middle;whiteSpace=wrap;rounded=0;fontSize=33;fontStyle=1;strokeWidth=4;" vertex="1" parent="1">
                    <mxGeometry x="-1488" y="1052.5" width="40" height="20" as="geometry"/>
                </mxCell>
                <mxCell id="34" value="208" style="text;html=1;strokeColor=none;fillColor=none;align=center;verticalAlign=middle;whiteSpace=wrap;rounded=0;fontSize=33;fontStyle=1;strokeWidth=4;" vertex="1" parent="1">
                    <mxGeometry x="-1525" y="1100.5" width="40" height="20" as="geometry"/>
                </mxCell>
                <mxCell id="35" value="207" style="text;html=1;strokeColor=none;fillColor=none;align=center;verticalAlign=middle;whiteSpace=wrap;rounded=0;fontSize=33;fontStyle=1;strokeWidth=4;" vertex="1" parent="1">
                    <mxGeometry x="-1498" y="1152.5" width="40" height="20" as="geometry"/>
                </mxCell>
                <mxCell id="36" value="222" style="text;html=1;strokeColor=none;fillColor=none;align=center;verticalAlign=middle;whiteSpace=wrap;rounded=0;fontSize=33;fontStyle=1;strokeWidth=4;" vertex="1" parent="1">
                    <mxGeometry x="-1600" y="1209.5" width="40" height="20" as="geometry"/>
                </mxCell>
                <mxCell id="37" value="205" style="text;html=1;strokeColor=none;fillColor=none;align=center;verticalAlign=middle;whiteSpace=wrap;rounded=0;fontSize=33;fontStyle=1;strokeWidth=4;" vertex="1" parent="1">
                    <mxGeometry x="-1623" y="1342.5" width="40" height="20" as="geometry"/>
                </mxCell>
                <mxCell id="38" value="206" style="text;html=1;strokeColor=none;fillColor=none;align=center;verticalAlign=middle;whiteSpace=wrap;rounded=0;fontSize=33;fontStyle=1;strokeWidth=4;" vertex="1" parent="1">
                    <mxGeometry x="-1625" y="1370.5" width="40" height="20" as="geometry"/>
                </mxCell>
                <mxCell id="39" value="204" style="text;html=1;strokeColor=none;fillColor=none;align=center;verticalAlign=middle;whiteSpace=wrap;rounded=0;fontSize=33;fontStyle=1;strokeWidth=4;" vertex="1" parent="1">
                    <mxGeometry x="-1565" y="1419.5" width="40" height="20" as="geometry"/>
                </mxCell>
                <mxCell id="40" value="203" style="text;html=1;strokeColor=none;fillColor=none;align=center;verticalAlign=middle;whiteSpace=wrap;rounded=0;fontSize=33;fontStyle=1;strokeWidth=4;" vertex="1" parent="1">
                    <mxGeometry x="-1583" y="1570.5" width="40" height="20" as="geometry"/>
                </mxCell>
                <mxCell id="41" value="223" style="text;html=1;strokeColor=none;fillColor=none;align=center;verticalAlign=middle;whiteSpace=wrap;rounded=0;fontSize=33;fontStyle=1;strokeWidth=4;" vertex="1" parent="1">
                    <mxGeometry x="-1590.46" y="1628.5" width="40" height="20" as="geometry"/>
                </mxCell>
                <mxCell id="42" value="224" style="text;html=1;strokeColor=none;fillColor=none;align=center;verticalAlign=middle;whiteSpace=wrap;rounded=0;fontSize=33;fontStyle=1;strokeWidth=4;" vertex="1" parent="1">
                    <mxGeometry x="-1665" y="1602.5" width="40" height="20" as="geometry"/>
                </mxCell>
                <mxCell id="43" value="216" style="text;html=1;strokeColor=none;fillColor=none;align=center;verticalAlign=middle;whiteSpace=wrap;rounded=0;fontSize=33;fontStyle=1;strokeWidth=4;" vertex="1" parent="1">
                    <mxGeometry x="-1578" y="1723.25" width="40" height="20" as="geometry"/>
                </mxCell>
                <mxCell id="44" value="" style="endArrow=none;html=1;strokeWidth=4;fontSize=33;" edge="1" parent="1">
                    <mxGeometry width="50" height="50" relative="1" as="geometry">
                        <mxPoint x="-1631" y="1707.5" as="sourcePoint"/>
                        <mxPoint x="-1670" y="1687.5" as="targetPoint"/>
                    </mxGeometry>
                </mxCell>
                <mxCell id="45" value="" style="endArrow=none;html=1;strokeWidth=4;fontSize=33;" edge="1" parent="1">
                    <mxGeometry width="50" height="50" relative="1" as="geometry">
                        <mxPoint x="-1628" y="1712.5" as="sourcePoint"/>
                        <mxPoint x="-1418" y="1301.120689655172" as="targetPoint"/>
                        <Array as="points">
                            <mxPoint x="-1478" y="1712.5"/>
                            <mxPoint x="-1438" y="1532.5"/>
                            <mxPoint x="-1418" y="1362.5"/>
                        </Array>
                    </mxGeometry>
                </mxCell>
                <mxCell id="46" value="" style="endArrow=none;html=1;strokeWidth=4;fontSize=33;" edge="1" parent="1">
                    <mxGeometry width="50" height="50" relative="1" as="geometry">
                        <mxPoint x="-1550" y="1255.5" as="sourcePoint"/>
                        <mxPoint x="-1520" y="1485.5" as="targetPoint"/>
                        <Array as="points">
                            <mxPoint x="-1480" y="1265.5"/>
                        </Array>
                    </mxGeometry>
                </mxCell>
                <mxCell id="47" value="211" style="text;html=1;strokeColor=none;fillColor=none;align=center;verticalAlign=middle;whiteSpace=wrap;rounded=0;fontSize=33;fontStyle=1;strokeWidth=4;" vertex="1" parent="1">
                    <mxGeometry x="-1538" y="1268.5" width="40" height="20" as="geometry"/>
                </mxCell>
                <mxCell id="48" value="212" style="text;html=1;strokeColor=none;fillColor=none;align=center;verticalAlign=middle;whiteSpace=wrap;rounded=0;fontSize=33;fontStyle=1;strokeWidth=4;" vertex="1" parent="1">
                    <mxGeometry x="-1481" y="1237.5" width="40" height="20" as="geometry"/>
                </mxCell>
                <mxCell id="49" value="213" style="text;html=1;strokeColor=none;fillColor=none;align=center;verticalAlign=middle;whiteSpace=wrap;rounded=0;fontSize=33;fontStyle=1;strokeWidth=4;" vertex="1" parent="1">
                    <mxGeometry x="-1487" y="1374.5" width="40" height="20" as="geometry"/>
                </mxCell>
                <mxCell id="50" value="215" style="text;html=1;strokeColor=none;fillColor=none;align=center;verticalAlign=middle;whiteSpace=wrap;rounded=0;fontSize=33;fontStyle=1;strokeWidth=4;" vertex="1" parent="1">
                    <mxGeometry x="-1501.25" y="1465.5" width="40" height="20" as="geometry"/>
                </mxCell>
                <mxCell id="51" value="221" style="text;html=1;strokeColor=none;fillColor=none;align=center;verticalAlign=middle;whiteSpace=wrap;rounded=0;fontSize=33;fontStyle=1;strokeWidth=4;" vertex="1" parent="1">
                    <mxGeometry x="-1402" y="1288.5" width="40" height="20" as="geometry"/>
                </mxCell>
                <mxCell id="52" value="220" style="text;html=1;strokeColor=none;fillColor=none;align=center;verticalAlign=middle;whiteSpace=wrap;rounded=0;fontSize=33;fontStyle=1;strokeWidth=4;" vertex="1" parent="1">
                    <mxGeometry x="-1402" y="1354.5" width="40" height="20" as="geometry"/>
                </mxCell>
                <mxCell id="53" value="219" style="text;html=1;strokeColor=none;fillColor=none;align=center;verticalAlign=middle;whiteSpace=wrap;rounded=0;fontSize=33;fontStyle=1;strokeWidth=4;" vertex="1" parent="1">
                    <mxGeometry x="-1415" y="1429.5" width="40" height="20" as="geometry"/>
                </mxCell>
                <mxCell id="54" value="218" style="text;html=1;strokeColor=none;fillColor=none;align=center;verticalAlign=middle;whiteSpace=wrap;rounded=0;fontSize=33;fontStyle=1;strokeWidth=4;" vertex="1" parent="1">
                    <mxGeometry x="-1428" y="1531.5" width="40" height="20" as="geometry"/>
                </mxCell>
                <mxCell id="55" value="217" style="text;html=1;strokeColor=none;fillColor=none;align=center;verticalAlign=middle;whiteSpace=wrap;rounded=0;fontSize=33;fontStyle=1;strokeWidth=4;" vertex="1" parent="1">
                    <mxGeometry x="-1450" y="1647" width="40" height="20" as="geometry"/>
                </mxCell>
                <mxCell id="56" value="101" style="text;html=1;strokeColor=none;fillColor=none;align=center;verticalAlign=middle;whiteSpace=wrap;rounded=0;fontSize=33;fontStyle=1;strokeWidth=4;" vertex="1" parent="1">
                    <mxGeometry x="-1330.46" y="1602.5" width="40" height="20" as="geometry"/>
                </mxCell>
                <mxCell id="57" value="102" style="text;html=1;strokeColor=none;fillColor=none;align=center;verticalAlign=middle;whiteSpace=wrap;rounded=0;fontSize=33;fontStyle=1;strokeWidth=4;" vertex="1" parent="1">
                    <mxGeometry x="-1208" y="1553.5" width="40" height="20" as="geometry"/>
                </mxCell>
                <mxCell id="58" value="112" style="text;html=1;strokeColor=none;fillColor=none;align=center;verticalAlign=middle;whiteSpace=wrap;rounded=0;fontSize=33;fontStyle=1;strokeWidth=4;" vertex="1" parent="1">
                    <mxGeometry x="-955" y="1675" width="40" height="20" as="geometry"/>
                </mxCell>
                <mxCell id="59" value="105" style="text;html=1;strokeColor=none;fillColor=none;align=center;verticalAlign=middle;whiteSpace=wrap;rounded=0;fontSize=33;fontStyle=1;strokeWidth=4;" vertex="1" parent="1">
                    <mxGeometry x="-971" y="1544" width="66" height="39" as="geometry"/>
                </mxCell>
                <mxCell id="60" value="109" style="text;html=1;strokeColor=none;fillColor=none;align=center;verticalAlign=middle;whiteSpace=wrap;rounded=0;fontSize=33;fontStyle=1;strokeWidth=4;" vertex="1" parent="1">
                    <mxGeometry x="-943" y="1465.5" width="40" height="20" as="geometry"/>
                </mxCell>
                <mxCell id="61" value="110" style="text;html=1;strokeColor=none;fillColor=none;align=center;verticalAlign=middle;whiteSpace=wrap;rounded=0;fontSize=33;fontStyle=1;strokeWidth=4;" vertex="1" parent="1">
                    <mxGeometry x="-955" y="1362.5" width="76" height="40" as="geometry"/>
                </mxCell>
                <mxCell id="62" value="124" style="text;html=1;strokeColor=none;fillColor=none;align=center;verticalAlign=middle;whiteSpace=wrap;rounded=0;fontSize=33;fontStyle=1;strokeWidth=4;" vertex="1" parent="1">
                    <mxGeometry x="-1014" y="1322.5" width="40" height="20" as="geometry"/>
                </mxCell>
                <mxCell id="63" value="123" style="text;html=1;strokeColor=none;fillColor=none;align=center;verticalAlign=middle;whiteSpace=wrap;rounded=0;fontSize=33;fontStyle=1;strokeWidth=4;" vertex="1" parent="1">
                    <mxGeometry x="-933.46" y="1322.5" width="40" height="20" as="geometry"/>
                </mxCell>
                <mxCell id="64" value="" style="endArrow=none;html=1;strokeWidth=4;fontSize=33;" edge="1" parent="1">
                    <mxGeometry width="50" height="50" relative="1" as="geometry">
                        <mxPoint x="-1278.999999999999" y="1546.499999999999" as="sourcePoint"/>
                        <mxPoint x="-1147" y="621.1206896551721" as="targetPoint"/>
                        <Array as="points">
                            <mxPoint x="-1310" y="1482.5"/>
                            <mxPoint x="-1290" y="1442.5"/>
                            <mxPoint x="-1308" y="1382.5"/>
                            <mxPoint x="-1248" y="1362.5"/>
                            <mxPoint x="-1218" y="1242.5"/>
                            <mxPoint x="-1208" y="1182.5"/>
                            <mxPoint x="-1198" y="1122.5"/>
                            <mxPoint x="-1238" y="1122.5"/>
                            <mxPoint x="-1218" y="942.5"/>
                        </Array>
                    </mxGeometry>
                </mxCell>
                <mxCell id="65" value="310" style="text;html=1;strokeColor=none;fillColor=none;align=center;verticalAlign=middle;whiteSpace=wrap;rounded=0;fontSize=33;fontStyle=1;strokeWidth=4;" vertex="1" parent="1">
                    <mxGeometry x="-1230.46" y="1342.5" width="40" height="20" as="geometry"/>
                </mxCell>
                <mxCell id="66" value="319" style="text;html=1;strokeColor=none;fillColor=none;align=center;verticalAlign=middle;whiteSpace=wrap;rounded=0;fontSize=33;fontStyle=1;strokeWidth=4;" vertex="1" parent="1">
                    <mxGeometry x="-1290.46" y="1112.5" width="40" height="20" as="geometry"/>
                </mxCell>
                <mxCell id="67" value="320" style="text;html=1;strokeColor=none;fillColor=none;align=center;verticalAlign=middle;whiteSpace=wrap;rounded=0;fontSize=33;fontStyle=1;strokeWidth=4;" vertex="1" parent="1">
                    <mxGeometry x="-1284.46" y="1072.5" width="40" height="20" as="geometry"/>
                </mxCell>
                <mxCell id="68" value="331" style="text;html=1;strokeColor=none;fillColor=none;align=center;verticalAlign=middle;whiteSpace=wrap;rounded=0;fontSize=33;fontStyle=1;strokeWidth=4;" vertex="1" parent="1">
                    <mxGeometry x="-1217" y="1035" width="40" height="20" as="geometry"/>
                </mxCell>
                <mxCell id="69" value="321" style="text;html=1;strokeColor=none;fillColor=none;align=center;verticalAlign=middle;whiteSpace=wrap;rounded=0;fontSize=33;fontStyle=1;strokeWidth=4;" vertex="1" parent="1">
                    <mxGeometry x="-1214" y="992.5" width="40" height="20" as="geometry"/>
                </mxCell>
                <mxCell id="70" value="327" style="text;html=1;strokeColor=none;fillColor=none;align=center;verticalAlign=middle;whiteSpace=wrap;rounded=0;fontSize=33;fontStyle=1;strokeWidth=4;" vertex="1" parent="1">
                    <mxGeometry x="-1208" y="952.5" width="40" height="20" as="geometry"/>
                </mxCell>
                <mxCell id="71" value="330" style="text;html=1;strokeColor=none;fillColor=none;align=center;verticalAlign=middle;whiteSpace=wrap;rounded=0;fontSize=33;fontStyle=1;strokeWidth=4;" vertex="1" parent="1">
                    <mxGeometry x="-1202" y="912.5" width="40" height="20" as="geometry"/>
                </mxCell>
                <mxCell id="72" value="329" style="text;html=1;strokeColor=none;fillColor=none;align=center;verticalAlign=middle;whiteSpace=wrap;rounded=0;fontSize=33;fontStyle=1;strokeWidth=4;" vertex="1" parent="1">
                    <mxGeometry x="-1190.46" y="867.5" width="40" height="20" as="geometry"/>
                </mxCell>
                <mxCell id="73" value="322" style="text;html=1;strokeColor=none;fillColor=none;align=center;verticalAlign=middle;whiteSpace=wrap;rounded=0;fontSize=33;fontStyle=1;strokeWidth=4;" vertex="1" parent="1">
                    <mxGeometry x="-1244.46" y="812.5" width="40" height="20" as="geometry"/>
                </mxCell>
                <mxCell id="74" value="323" style="text;html=1;strokeColor=none;fillColor=none;align=center;verticalAlign=middle;whiteSpace=wrap;rounded=0;fontSize=33;fontStyle=1;strokeWidth=4;" vertex="1" parent="1">
                    <mxGeometry x="-1237" y="763.5" width="40" height="20" as="geometry"/>
                </mxCell>
                <mxCell id="75" value="324" style="text;html=1;strokeColor=none;fillColor=none;align=center;verticalAlign=middle;whiteSpace=wrap;rounded=0;fontSize=33;fontStyle=1;strokeWidth=4;" vertex="1" parent="1">
                    <mxGeometry x="-1168" y="792.5" width="40" height="20" as="geometry"/>
                </mxCell>
                <mxCell id="76" value="325" style="text;html=1;strokeColor=none;fillColor=none;align=center;verticalAlign=middle;whiteSpace=wrap;rounded=0;fontSize=33;fontStyle=1;strokeWidth=4;" vertex="1" parent="1">
                    <mxGeometry x="-1154" y="726" width="40" height="20" as="geometry"/>
                </mxCell>
                <mxCell id="77" value="328" style="text;html=1;strokeColor=none;fillColor=none;align=center;verticalAlign=middle;whiteSpace=wrap;rounded=0;fontSize=33;fontStyle=1;strokeWidth=4;" vertex="1" parent="1">
                    <mxGeometry x="-1140" y="672.5" width="40" height="20" as="geometry"/>
                </mxCell>
                <mxCell id="78" value="326" style="text;html=1;strokeColor=none;fillColor=none;align=center;verticalAlign=middle;whiteSpace=wrap;rounded=0;fontSize=33;fontStyle=1;strokeWidth=4;" vertex="1" parent="1">
                    <mxGeometry x="-1140" y="642.5" width="40" height="20" as="geometry"/>
                </mxCell>
                <mxCell id="79" value="117" style="text;html=1;strokeColor=none;fillColor=none;align=center;verticalAlign=middle;whiteSpace=wrap;rounded=0;fontSize=33;fontStyle=1;strokeWidth=4;" vertex="1" parent="1">
                    <mxGeometry x="-928" y="1257.5" width="40" height="20" as="geometry"/>
                </mxCell>
                <mxCell id="80" value="119" style="text;html=1;strokeColor=none;fillColor=none;align=center;verticalAlign=middle;whiteSpace=wrap;rounded=0;fontSize=33;fontStyle=1;strokeWidth=4;" vertex="1" parent="1">
                    <mxGeometry x="-905" y="1132.5" width="40" height="20" as="geometry"/>
                </mxCell>
                <mxCell id="81" value="126" style="text;html=1;strokeColor=none;fillColor=none;align=center;verticalAlign=middle;whiteSpace=wrap;rounded=0;fontSize=33;fontStyle=1;strokeWidth=4;" vertex="1" parent="1">
                    <mxGeometry x="-848" y="862.5" width="40" height="20" as="geometry"/>
                </mxCell>
                <mxCell id="82" value="125" style="text;html=1;strokeColor=none;fillColor=none;align=center;verticalAlign=middle;whiteSpace=wrap;rounded=0;fontSize=33;fontStyle=1;strokeWidth=4;" vertex="1" parent="1">
                    <mxGeometry x="-868" y="902.5" width="40" height="20" as="geometry"/>
                </mxCell>
                <mxCell id="83" value="127" style="text;html=1;strokeColor=none;fillColor=none;align=center;verticalAlign=middle;whiteSpace=wrap;rounded=0;fontSize=33;fontStyle=1;strokeWidth=4;" vertex="1" parent="1">
                    <mxGeometry x="-828" y="802.5" width="40" height="20" as="geometry"/>
                </mxCell>
                <mxCell id="84" value="128" style="text;html=1;strokeColor=none;fillColor=none;align=center;verticalAlign=middle;whiteSpace=wrap;rounded=0;fontSize=33;fontStyle=1;strokeWidth=4;" vertex="1" parent="1">
                    <mxGeometry x="-784" y="682.5" width="40" height="20" as="geometry"/>
                </mxCell>
                <mxCell id="85" value="129" style="text;html=1;strokeColor=none;fillColor=none;align=center;verticalAlign=middle;whiteSpace=wrap;rounded=0;fontSize=33;fontStyle=1;strokeWidth=4;" vertex="1" parent="1">
                    <mxGeometry x="-765" y="622.5" width="40" height="20" as="geometry"/>
                </mxCell>
                <mxCell id="86" value="131" style="text;html=1;strokeColor=none;fillColor=none;align=center;verticalAlign=middle;whiteSpace=wrap;rounded=0;fontSize=33;fontStyle=1;strokeWidth=4;" vertex="1" parent="1">
                    <mxGeometry x="-765" y="592.5" width="40" height="20" as="geometry"/>
                </mxCell>
                <mxCell id="87" value="130" style="text;html=1;strokeColor=none;fillColor=none;align=center;verticalAlign=middle;whiteSpace=wrap;rounded=0;fontSize=33;fontStyle=1;strokeWidth=4;" vertex="1" parent="1">
                    <mxGeometry x="-637" y="550.5" width="40" height="20" as="geometry"/>
                </mxCell>
                <mxCell id="88" value="132" style="text;html=1;strokeColor=none;fillColor=none;align=center;verticalAlign=middle;whiteSpace=wrap;rounded=0;fontSize=33;fontStyle=1;strokeWidth=4;" vertex="1" parent="1">
                    <mxGeometry x="-744" y="510.5" width="40" height="20" as="geometry"/>
                </mxCell>
                <mxCell id="89" value="" style="endArrow=none;html=1;strokeWidth=4;fontSize=33;" edge="1" parent="1">
                    <mxGeometry width="50" height="50" relative="1" as="geometry">
                        <mxPoint x="-896" y="953.5" as="sourcePoint"/>
                        <mxPoint x="-468" y="899.5" as="targetPoint"/>
                        <Array as="points">
                            <mxPoint x="-708" y="962.5"/>
                            <mxPoint x="-678" y="902.5"/>
                        </Array>
                    </mxGeometry>
                </mxCell>
                <mxCell id="90" value="151" style="text;html=1;strokeColor=none;fillColor=none;align=center;verticalAlign=middle;whiteSpace=wrap;rounded=0;fontSize=33;fontStyle=1;strokeWidth=4;" vertex="1" parent="1">
                    <mxGeometry x="-798" y="930.5" width="40" height="20" as="geometry"/>
                </mxCell>
                <mxCell id="91" value="152" style="text;html=1;strokeColor=none;fillColor=none;align=center;verticalAlign=middle;whiteSpace=wrap;rounded=0;fontSize=33;fontStyle=1;strokeWidth=4;" vertex="1" parent="1">
                    <mxGeometry x="-808" y="972.5" width="40" height="20" as="geometry"/>
                </mxCell>
                <mxCell id="92" value="153" style="text;html=1;strokeColor=none;fillColor=none;align=center;verticalAlign=middle;whiteSpace=wrap;rounded=0;fontSize=33;fontStyle=1;strokeWidth=4;" vertex="1" parent="1">
                    <mxGeometry x="-725" y="972.5" width="40" height="20" as="geometry"/>
                </mxCell>
                <mxCell id="93" value="154" style="text;html=1;strokeColor=none;fillColor=none;align=center;verticalAlign=middle;whiteSpace=wrap;rounded=0;fontSize=33;fontStyle=1;strokeWidth=4;" vertex="1" parent="1">
                    <mxGeometry x="-688" y="874.5" width="40" height="20" as="geometry"/>
                </mxCell>
                <mxCell id="94" value="155" style="text;html=1;strokeColor=none;fillColor=none;align=center;verticalAlign=middle;whiteSpace=wrap;rounded=0;fontSize=33;fontStyle=1;strokeWidth=4;" vertex="1" parent="1">
                    <mxGeometry x="-608" y="910.5" width="40" height="20" as="geometry"/>
                </mxCell>
                <mxCell id="95" value="" style="endArrow=none;html=1;strokeWidth=4;fontSize=33;" edge="1" parent="1">
                    <mxGeometry width="50" height="50" relative="1" as="geometry">
                        <mxPoint x="-488" y="1473.5" as="sourcePoint"/>
                        <mxPoint x="-448" y="362.5" as="targetPoint"/>
                    </mxGeometry>
                </mxCell>
                <mxCell id="96" value="141" style="text;html=1;strokeColor=none;fillColor=none;align=center;verticalAlign=middle;whiteSpace=wrap;rounded=0;fontSize=33;fontStyle=1;strokeWidth=4;" vertex="1" parent="1">
                    <mxGeometry x="-507.46000000000004" y="418.5" width="40" height="20" as="geometry"/>
                </mxCell>
                <mxCell id="97" value="143" style="text;html=1;strokeColor=none;fillColor=none;align=center;verticalAlign=middle;whiteSpace=wrap;rounded=0;fontSize=33;fontStyle=1;strokeWidth=4;" vertex="1" parent="1">
                    <mxGeometry x="-508" y="530.5" width="40" height="20" as="geometry"/>
                </mxCell>
                <mxCell id="98" value="145" style="text;html=1;strokeColor=none;fillColor=none;align=center;verticalAlign=middle;whiteSpace=wrap;rounded=0;fontSize=33;fontStyle=1;strokeWidth=4;" vertex="1" parent="1">
                    <mxGeometry x="-510" y="603.5" width="40" height="20" as="geometry"/>
                </mxCell>
                <mxCell id="99" value="142" style="text;html=1;strokeColor=none;fillColor=none;align=center;verticalAlign=middle;whiteSpace=wrap;rounded=0;fontSize=33;fontStyle=1;strokeWidth=4;" vertex="1" parent="1">
                    <mxGeometry x="-510" y="642.5" width="40" height="20" as="geometry"/>
                </mxCell>
                <mxCell id="100" value="144" style="text;html=1;strokeColor=none;fillColor=none;align=center;verticalAlign=middle;whiteSpace=wrap;rounded=0;fontSize=33;fontStyle=1;strokeWidth=4;" vertex="1" parent="1">
                    <mxGeometry x="-450" y="706" width="40" height="20" as="geometry"/>
                </mxCell>
                <mxCell id="101" value="146" style="text;html=1;strokeColor=none;fillColor=none;align=center;verticalAlign=middle;whiteSpace=wrap;rounded=0;fontSize=33;fontStyle=1;strokeWidth=4;" vertex="1" parent="1">
                    <mxGeometry x="-450" y="772.5" width="40" height="20" as="geometry"/>
                </mxCell>
                <mxCell id="102" value="147" style="text;html=1;strokeColor=none;fillColor=none;align=center;verticalAlign=middle;whiteSpace=wrap;rounded=0;fontSize=33;fontStyle=1;strokeWidth=4;" vertex="1" parent="1">
                    <mxGeometry x="-637" y="759.5" width="40" height="20" as="geometry"/>
                </mxCell>
                <mxCell id="103" value="148" style="text;html=1;strokeColor=none;fillColor=none;align=center;verticalAlign=middle;whiteSpace=wrap;rounded=0;fontSize=33;fontStyle=1;strokeWidth=4;" vertex="1" parent="1">
                    <mxGeometry x="-667" y="702.5" width="70" height="33.5" as="geometry"/>
                </mxCell>
                <mxCell id="104" value="172" style="text;html=1;strokeColor=none;fillColor=none;align=center;verticalAlign=middle;whiteSpace=wrap;rounded=0;fontSize=33;fontStyle=1;strokeWidth=4;" vertex="1" parent="1">
                    <mxGeometry x="-538" y="1332.5" width="40" height="20" as="geometry"/>
                </mxCell>
                <mxCell id="105" value="171" style="text;html=1;strokeColor=none;fillColor=none;align=center;verticalAlign=middle;whiteSpace=wrap;rounded=0;fontSize=33;fontStyle=1;strokeWidth=4;" vertex="1" parent="1">
                    <mxGeometry x="-538" y="1302.5" width="40" height="20" as="geometry"/>
                </mxCell>
                <mxCell id="106" value="" style="endArrow=none;html=1;strokeWidth=4;fontSize=33;" edge="1" parent="1">
                    <mxGeometry width="50" height="50" relative="1" as="geometry">
                        <mxPoint x="-471" y="1034.5" as="sourcePoint"/>
                        <mxPoint x="93" y="629.5" as="targetPoint"/>
                        <Array as="points">
                            <mxPoint x="-288" y="1032.5"/>
                            <mxPoint x="-188.00000000000003" y="1032.5"/>
                            <mxPoint x="-148.00000000000003" y="1022.5"/>
                            <mxPoint x="92" y="912.5"/>
                        </Array>
                    </mxGeometry>
                </mxCell>
                <mxCell id="107" value="" style="endArrow=none;html=1;strokeWidth=4;fontSize=33;" edge="1" parent="1">
                    <mxGeometry width="50" height="50" relative="1" as="geometry">
                        <mxPoint x="92" y="799.5" as="sourcePoint"/>
                        <mxPoint x="194" y="796.5" as="targetPoint"/>
                    </mxGeometry>
                </mxCell>
                <mxCell id="108" value="161" style="text;html=1;strokeColor=none;fillColor=none;align=center;verticalAlign=middle;whiteSpace=wrap;rounded=0;fontSize=33;fontStyle=1;strokeWidth=4;" vertex="1" parent="1">
                    <mxGeometry x="202" y="783.5" width="40" height="20" as="geometry"/>
                </mxCell>
                <mxCell id="109" value="165" style="text;html=1;strokeColor=none;fillColor=none;align=center;verticalAlign=middle;whiteSpace=wrap;rounded=0;fontSize=33;fontStyle=1;strokeWidth=4;" vertex="1" parent="1">
                    <mxGeometry x="-48" y="986" width="40" height="20" as="geometry"/>
                </mxCell>
                <mxCell id="110" value="162" style="text;html=1;strokeColor=none;fillColor=none;align=center;verticalAlign=middle;whiteSpace=wrap;rounded=0;fontSize=33;fontStyle=1;strokeWidth=4;" vertex="1" parent="1">
                    <mxGeometry x="-358" y="998.5" width="40" height="20" as="geometry"/>
                </mxCell>
                <mxCell id="111" value="163" style="text;html=1;strokeColor=none;fillColor=none;align=center;verticalAlign=middle;whiteSpace=wrap;rounded=0;fontSize=33;fontStyle=1;strokeWidth=4;" vertex="1" parent="1">
                    <mxGeometry x="-278" y="986" width="60" height="40" as="geometry"/>
                </mxCell>
                <mxCell id="112" value="160" style="text;html=1;strokeColor=none;fillColor=none;align=center;verticalAlign=middle;whiteSpace=wrap;rounded=0;fontSize=33;fontStyle=1;strokeWidth=4;" vertex="1" parent="1">
                    <mxGeometry x="-210" y="1047" width="40" height="20" as="geometry"/>
                </mxCell>
                <mxCell id="113" value="" style="endArrow=none;html=1;strokeWidth=4;" edge="1" parent="1">
                    <mxGeometry width="50" height="50" relative="1" as="geometry">
                        <mxPoint x="-618.9999999999991" y="742.5" as="sourcePoint"/>
                        <mxPoint x="-461" y="742.5" as="targetPoint"/>
                    </mxGeometry>
                </mxCell>
                <mxCell id="114" value="&lt;b style=&quot;font-size: 27px&quot;&gt;Minipantano&lt;/b&gt;" style="rounded=1;whiteSpace=wrap;html=1;strokeWidth=4;fontSize=27;fillColor=#ffff88;strokeColor=#36393d;" vertex="1" parent="1">
                    <mxGeometry x="122" y="706" width="180" height="50" as="geometry"/>
                </mxCell>
                <mxCell id="115" value="" style="verticalLabelPosition=bottom;align=center;html=1;verticalAlign=top;pointerEvents=1;dashed=0;shape=mxgraph.pid2valves.valve;valveType=gate;defState=closed;strokeWidth=4;fillColor=none;fontSize=17;rotation=-90;strokeColor=#0000FF;" vertex="1" parent="1">
                    <mxGeometry x="-464.46000000000004" y="1024.5" width="37.54" height="22.5" as="geometry"/>
                </mxCell>
                <mxCell id="116" value="&lt;b style=&quot;font-size: 27px&quot;&gt;Loma Balsa de los Piedras&lt;/b&gt;" style="rounded=1;whiteSpace=wrap;html=1;strokeWidth=4;fontSize=27;fillColor=#ffff88;strokeColor=#36393d;" vertex="1" parent="1">
                    <mxGeometry x="-768" y="390.5" width="220" height="76" as="geometry"/>
                </mxCell>
                <mxCell id="117" value="&lt;b style=&quot;font-size: 27px&quot;&gt;Loma del Pajar&lt;/b&gt;" style="rounded=1;whiteSpace=wrap;html=1;strokeWidth=4;fontSize=27;fillColor=#ffff88;strokeColor=#36393d;" vertex="1" parent="1">
                    <mxGeometry x="-1168" y="520.5" width="142" height="72" as="geometry"/>
                </mxCell>
                <mxCell id="118" value="118" style="text;html=1;strokeColor=none;fillColor=none;align=center;verticalAlign=middle;whiteSpace=wrap;rounded=0;fontSize=33;fontStyle=1;strokeWidth=4;" vertex="1" parent="1">
                    <mxGeometry x="-915" y="1222.5" width="40" height="20" as="geometry"/>
                </mxCell>
                <mxCell id="119" value="" style="verticalLabelPosition=bottom;align=center;html=1;verticalAlign=top;pointerEvents=1;dashed=0;shape=mxgraph.pid2valves.valve;valveType=gate;defState=closed;strokeWidth=4;fillColor=none;fontSize=17;rotation=-90;strokeColor=#0000FF;" vertex="1" parent="1">
                    <mxGeometry x="-1268" y="1652.5" width="37.54" height="22.5" as="geometry"/>
                </mxCell>
                <mxCell id="120" value="" style="verticalLabelPosition=bottom;align=center;html=1;verticalAlign=top;pointerEvents=1;dashed=0;shape=mxgraph.pid2valves.valve;valveType=gate;defState=closed;strokeWidth=4;fillColor=none;fontSize=17;rotation=-90;strokeColor=#0000FF;" vertex="1" parent="1">
                    <mxGeometry x="-1274.54" y="1531.5" width="37.54" height="22.5" as="geometry"/>
                </mxCell>
                <mxCell id="121" value="" style="verticalLabelPosition=bottom;align=center;outlineConnect=0;dashed=0;html=1;verticalAlign=top;shape=mxgraph.pid.flow_sensors.rotameter;strokeWidth=6;fontSize=17;rotation=-90;fontColor=#009900;strokeColor=#009900;fillColor=none;" vertex="1" parent="1">
                    <mxGeometry x="-1501.25" y="1872.5" width="30" height="22" as="geometry"/>
                </mxCell>
                <mxCell id="122" value="&lt;b style=&quot;font-size: 27px&quot;&gt;Balsa&lt;/b&gt;" style="rounded=1;whiteSpace=wrap;html=1;strokeWidth=4;fontSize=27;fillColor=#ffff88;strokeColor=#36393d;" vertex="1" parent="1">
                    <mxGeometry x="-1868" y="1554.5" width="160" height="52" as="geometry"/>
                </mxCell>
                <mxCell id="123" value="&lt;b style=&quot;font-size: 27px&quot;&gt;Llano los Militares&lt;/b&gt;" style="rounded=1;whiteSpace=wrap;html=1;strokeWidth=4;fontSize=27;fillColor=#ffff88;strokeColor=#36393d;" vertex="1" parent="1">
                    <mxGeometry x="-2061" y="1202.5" width="140" height="60" as="geometry"/>
                </mxCell>
                <mxCell id="124" value="&lt;b style=&quot;font-size: 27px&quot;&gt;Jardines de Viator&lt;/b&gt;" style="rounded=1;whiteSpace=wrap;html=1;strokeWidth=4;fontSize=27;fillColor=#ffff88;strokeColor=#36393d;" vertex="1" parent="1">
                    <mxGeometry x="-1613.25" y="940.5" width="142" height="72" as="geometry"/>
                </mxCell>
                <mxCell id="125" value="164" style="text;html=1;strokeColor=none;fillColor=none;align=center;verticalAlign=middle;whiteSpace=wrap;rounded=0;fontSize=33;fontStyle=1;strokeWidth=4;" vertex="1" parent="1">
                    <mxGeometry x="-210" y="982.5" width="60" height="40" as="geometry"/>
                </mxCell>
                <mxCell id="126" value="149" style="text;html=1;strokeColor=none;fillColor=none;align=center;verticalAlign=middle;whiteSpace=wrap;rounded=0;fontSize=33;fontStyle=1;strokeWidth=4;" vertex="1" parent="1">
                    <mxGeometry x="-598" y="702.5" width="70" height="33.5" as="geometry"/>
                </mxCell>
                <mxCell id="127" value="111" style="text;html=1;strokeColor=none;fillColor=none;align=center;verticalAlign=middle;whiteSpace=wrap;rounded=0;fontSize=33;fontStyle=1;strokeWidth=4;" vertex="1" parent="1">
                    <mxGeometry x="-955" y="1394.5" width="76" height="40" as="geometry"/>
                </mxCell>
                <mxCell id="128" value="106" style="text;html=1;strokeColor=none;fillColor=none;align=center;verticalAlign=middle;whiteSpace=wrap;rounded=0;fontSize=33;fontStyle=1;strokeWidth=4;" vertex="1" parent="1">
                    <mxGeometry x="-905" y="1544" width="66" height="39" as="geometry"/>
                </mxCell>
                <mxCell id="129" value="103" style="text;html=1;strokeColor=none;fillColor=none;align=center;verticalAlign=middle;whiteSpace=wrap;rounded=0;fontSize=33;fontStyle=1;strokeWidth=4;" vertex="1" parent="1">
                    <mxGeometry x="-1115" y="1544" width="66" height="39" as="geometry"/>
                </mxCell>
                <mxCell id="130" value="104" style="text;html=1;strokeColor=none;fillColor=none;align=center;verticalAlign=middle;whiteSpace=wrap;rounded=0;fontSize=33;fontStyle=1;strokeWidth=4;" vertex="1" parent="1">
                    <mxGeometry x="-1049" y="1544" width="66" height="39" as="geometry"/>
                </mxCell>
                <mxCell id="131" value="Actualizado: 04/05/2021" style="text;html=1;strokeColor=none;fillColor=none;align=center;verticalAlign=middle;whiteSpace=wrap;rounded=0;fontSize=50;fontStyle=1;strokeWidth=4;" vertex="1" parent="1">
                    <mxGeometry x="1487" y="1992.5" width="590" height="20" as="geometry"/>
                </mxCell>
                <mxCell id="132" value="&lt;font style=&quot;font-size: 79px&quot;&gt;SECTOR - VII&lt;/font&gt;" style="text;html=1;strokeColor=none;fillColor=none;align=center;verticalAlign=middle;whiteSpace=wrap;rounded=0;fontSize=50;fontStyle=1;strokeWidth=4;" vertex="1" parent="1">
                    <mxGeometry x="1518" y="1909.5" width="520" height="20" as="geometry"/>
                </mxCell>
                <mxCell id="133" value="" style="verticalLabelPosition=bottom;align=center;html=1;verticalAlign=top;pointerEvents=1;dashed=0;shape=mxgraph.pid2valves.valve;valveType=gate;defState=closed;strokeWidth=4;fillColor=none;fontSize=17;rotation=-90;strokeColor=#0000FF;" vertex="1" parent="1">
                    <mxGeometry x="1189" y="2961.5" width="37.54" height="22.5" as="geometry"/>
                </mxCell>
                <mxCell id="134" value="" style="verticalLabelPosition=bottom;align=center;html=1;verticalAlign=top;pointerEvents=1;dashed=0;shape=mxgraph.pid2valves.valve;valveType=gate;defState=closed;strokeWidth=4;fillColor=none;fontSize=17;rotation=-90;" vertex="1" parent="1">
                    <mxGeometry x="670" y="2392.5" width="37.54" height="22.5" as="geometry"/>
                </mxCell>
                <mxCell id="135" value="" style="verticalLabelPosition=bottom;align=center;html=1;verticalAlign=top;pointerEvents=1;dashed=0;shape=mxgraph.pid2valves.valve;valveType=gate;defState=closed;strokeWidth=4;fillColor=none;fontSize=17;rotation=15;" vertex="1" parent="1">
                    <mxGeometry x="640" y="2359.5" width="37.54" height="22.5" as="geometry"/>
                </mxCell>
                <mxCell id="136" value="" style="verticalLabelPosition=bottom;align=center;html=1;verticalAlign=top;pointerEvents=1;dashed=0;shape=mxgraph.pid2valves.valve;valveType=gate;defState=closed;strokeWidth=4;fillColor=none;fontSize=17;rotation=-15;" vertex="1" parent="1">
                    <mxGeometry x="920" y="2415" width="37.54" height="22.5" as="geometry"/>
                </mxCell>
                <mxCell id="137" value="" style="verticalLabelPosition=bottom;align=center;html=1;verticalAlign=top;pointerEvents=1;dashed=0;shape=mxgraph.pid2valves.valve;valveType=gate;defState=closed;strokeWidth=4;fillColor=none;fontSize=17;rotation=-100;strokeColor=#0000FF;" vertex="1" parent="1">
                    <mxGeometry x="980" y="2384" width="37.54" height="22.5" as="geometry"/>
                </mxCell>
                <mxCell id="138" value="" style="endArrow=none;html=1;strokeWidth=4;fontSize=33;" edge="1" parent="1">
                    <mxGeometry width="50" height="50" relative="1" as="geometry">
                        <mxPoint x="651" y="2402.5" as="sourcePoint"/>
                        <mxPoint x="811" y="1732.5" as="targetPoint"/>
                        <Array as="points">
                            <mxPoint x="671" y="2332.5"/>
                            <mxPoint x="681" y="2272.5"/>
                            <mxPoint x="631" y="2202.5"/>
                            <mxPoint x="611" y="2122.5"/>
                            <mxPoint x="611" y="2002.5"/>
                            <mxPoint x="581" y="1982.5"/>
                            <mxPoint x="521" y="1842.5"/>
                            <mxPoint x="591" y="1852.5"/>
                            <mxPoint x="661" y="1882.5"/>
                            <mxPoint x="751" y="1832.5"/>
                            <mxPoint x="721" y="1782.5"/>
                        </Array>
                    </mxGeometry>
                </mxCell>
                <mxCell id="139" value="" style="endArrow=none;html=1;strokeWidth=4;fontSize=33;" edge="1" parent="1">
                    <mxGeometry width="50" height="50" relative="1" as="geometry">
                        <mxPoint x="1135" y="2382.5" as="sourcePoint"/>
                        <mxPoint x="390" y="2362.5" as="targetPoint"/>
                        <Array as="points">
                            <mxPoint x="940" y="2402.5"/>
                            <mxPoint x="820" y="2412.5"/>
                            <mxPoint x="640" y="2402.5"/>
                            <mxPoint x="550" y="2382.5"/>
                            <mxPoint x="500" y="2322.5"/>
                            <mxPoint x="420" y="2262.5"/>
                            <mxPoint x="390" y="2252.5"/>
                            <mxPoint x="350" y="2252.5"/>
                            <mxPoint x="340" y="2272.5"/>
                            <mxPoint x="340" y="2292.5"/>
                        </Array>
                    </mxGeometry>
                </mxCell>
                <mxCell id="140" value="" style="endArrow=none;html=1;strokeWidth=4;fontSize=33;" edge="1" parent="1">
                    <mxGeometry width="50" height="50" relative="1" as="geometry">
                        <mxPoint x="1210" y="3169.166666666666" as="sourcePoint"/>
                        <mxPoint x="930" y="2402.5" as="targetPoint"/>
                        <Array as="points">
                            <mxPoint x="1180" y="3022.5"/>
                            <mxPoint x="1180" y="2972.5"/>
                            <mxPoint x="1190" y="2832.5"/>
                            <mxPoint x="1160" y="2812.5"/>
                            <mxPoint x="1070" y="2802.5"/>
                        </Array>
                    </mxGeometry>
                </mxCell>
                <mxCell id="141" value="" style="endArrow=none;html=1;strokeWidth=4;fontSize=33;" edge="1" parent="1">
                    <mxGeometry width="50" height="50" relative="1" as="geometry">
                        <mxPoint x="1180" y="2972.5" as="sourcePoint"/>
                        <mxPoint x="1400" y="2962.5" as="targetPoint"/>
                        <Array as="points">
                            <mxPoint x="1310" y="2972.5"/>
                        </Array>
                    </mxGeometry>
                </mxCell>
                <mxCell id="142" value="" style="endArrow=none;html=1;strokeWidth=4;fontSize=33;" edge="1" parent="1">
                    <mxGeometry width="50" height="50" relative="1" as="geometry">
                        <mxPoint x="1440" y="3154.166666666666" as="sourcePoint"/>
                        <mxPoint x="1380" y="2812.5" as="targetPoint"/>
                        <Array as="points">
                            <mxPoint x="1400" y="2962.5"/>
                        </Array>
                    </mxGeometry>
                </mxCell>
                <mxCell id="143" value="20" style="text;html=1;strokeColor=none;fillColor=none;align=center;verticalAlign=middle;whiteSpace=wrap;rounded=0;fontSize=33;fontStyle=1;strokeWidth=4;" vertex="1" parent="1">
                    <mxGeometry x="1458" y="3132.5" width="40" height="20" as="geometry"/>
                </mxCell>
                <mxCell id="144" value="19" style="text;html=1;strokeColor=none;fillColor=none;align=center;verticalAlign=middle;whiteSpace=wrap;rounded=0;fontSize=33;fontStyle=1;strokeWidth=4;" vertex="1" parent="1">
                    <mxGeometry x="1430" y="3042.5" width="40" height="20" as="geometry"/>
                </mxCell>
                <mxCell id="145" value="18" style="text;html=1;strokeColor=none;fillColor=none;align=center;verticalAlign=middle;whiteSpace=wrap;rounded=0;fontSize=33;fontStyle=1;strokeWidth=4;" vertex="1" parent="1">
                    <mxGeometry x="1410" y="2941.5" width="40" height="20" as="geometry"/>
                </mxCell>
                <mxCell id="146" value="14" style="text;html=1;strokeColor=none;fillColor=none;align=center;verticalAlign=middle;whiteSpace=wrap;rounded=0;fontSize=33;fontStyle=1;strokeWidth=4;" vertex="1" parent="1">
                    <mxGeometry x="1203" y="3082.5" width="40" height="20" as="geometry"/>
                </mxCell>
                <mxCell id="147" value="15" style="text;html=1;strokeColor=none;fillColor=none;align=center;verticalAlign=middle;whiteSpace=wrap;rounded=0;fontSize=33;fontStyle=0;fontColor=#FF0000;strokeWidth=4;" vertex="1" parent="1">
                    <mxGeometry x="1210" y="3132.5" width="40" height="20" as="geometry"/>
                </mxCell>
                <mxCell id="148" value="17" style="text;html=1;strokeColor=none;fillColor=none;align=center;verticalAlign=middle;whiteSpace=wrap;rounded=0;fontSize=33;fontStyle=1;strokeWidth=4;" vertex="1" parent="1">
                    <mxGeometry x="1400" y="2855.5" width="40" height="20" as="geometry"/>
                </mxCell>
                <mxCell id="149" value="16" style="text;html=1;strokeColor=none;fillColor=none;align=center;verticalAlign=middle;whiteSpace=wrap;rounded=0;fontSize=33;fontStyle=1;strokeWidth=4;" vertex="1" parent="1">
                    <mxGeometry x="1387" y="2795.5" width="40" height="20" as="geometry"/>
                </mxCell>
                <mxCell id="150" value="22" style="text;html=1;strokeColor=none;fillColor=none;align=center;verticalAlign=middle;whiteSpace=wrap;rounded=0;fontSize=33;fontStyle=1;strokeWidth=4;" vertex="1" parent="1">
                    <mxGeometry x="1074.54" y="2822.5" width="40" height="20" as="geometry"/>
                </mxCell>
                <mxCell id="151" value="&lt;b&gt;21&lt;/b&gt;" style="text;html=1;strokeColor=none;fillColor=none;align=center;verticalAlign=middle;whiteSpace=wrap;rounded=0;fontSize=33;strokeWidth=4;" vertex="1" parent="1">
                    <mxGeometry x="1030" y="2622.5" width="40" height="20" as="geometry"/>
                </mxCell>
                <mxCell id="152" value="11" style="text;html=1;strokeColor=none;fillColor=none;align=center;verticalAlign=middle;whiteSpace=wrap;rounded=0;fontSize=33;fontStyle=1;strokeWidth=4;" vertex="1" parent="1">
                    <mxGeometry x="985" y="2512.5" width="40" height="20" as="geometry"/>
                </mxCell>
                <mxCell id="153" value="10" style="text;html=1;strokeColor=none;fillColor=none;align=center;verticalAlign=middle;whiteSpace=wrap;rounded=0;fontSize=33;fontStyle=1;strokeWidth=4;" vertex="1" parent="1">
                    <mxGeometry x="966" y="2462.5" width="40" height="20" as="geometry"/>
                </mxCell>
                <mxCell id="154" value="9" style="text;html=1;strokeColor=none;fillColor=none;align=center;verticalAlign=middle;whiteSpace=wrap;rounded=0;fontSize=33;fontStyle=1;strokeWidth=4;" vertex="1" parent="1">
                    <mxGeometry x="828" y="2382" width="40" height="20" as="geometry"/>
                </mxCell>
                <mxCell id="155" value="1" style="text;html=1;strokeColor=none;fillColor=none;align=center;verticalAlign=middle;whiteSpace=wrap;rounded=0;fontSize=33;fontStyle=1;strokeWidth=4;" vertex="1" parent="1">
                    <mxGeometry x="674.54" y="2242.5" width="40" height="20" as="geometry"/>
                </mxCell>
                <mxCell id="156" value="2" style="text;html=1;strokeColor=none;fillColor=none;align=center;verticalAlign=middle;whiteSpace=wrap;rounded=0;fontSize=33;fontStyle=1;strokeWidth=4;" vertex="1" parent="1">
                    <mxGeometry x="616" y="2104.5" width="40" height="20" as="geometry"/>
                </mxCell>
                <mxCell id="157" value="4" style="text;html=1;strokeColor=none;fillColor=none;align=center;verticalAlign=middle;whiteSpace=wrap;rounded=0;fontSize=33;fontStyle=1;strokeWidth=4;" vertex="1" parent="1">
                    <mxGeometry x="550" y="1909.5" width="40" height="20" as="geometry"/>
                </mxCell>
                <mxCell id="158" value="7" style="text;html=1;strokeColor=none;fillColor=none;align=center;verticalAlign=middle;whiteSpace=wrap;rounded=0;fontSize=33;fontStyle=0;fontColor=#FF0000;strokeWidth=4;" vertex="1" parent="1">
                    <mxGeometry x="582" y="1957.5" width="40" height="20" as="geometry"/>
                </mxCell>
                <mxCell id="159" value="5" style="text;html=1;strokeColor=none;fillColor=none;align=center;verticalAlign=middle;whiteSpace=wrap;rounded=0;fontSize=33;fontStyle=1;strokeWidth=4;" vertex="1" parent="1">
                    <mxGeometry x="487" y="1822.5" width="40" height="20" as="geometry"/>
                </mxCell>
                <mxCell id="160" value="6" style="text;html=1;strokeColor=none;fillColor=none;align=center;verticalAlign=middle;whiteSpace=wrap;rounded=0;fontSize=33;fontStyle=1;strokeWidth=4;" vertex="1" parent="1">
                    <mxGeometry x="748" y="1832.5" width="40" height="20" as="geometry"/>
                </mxCell>
                <mxCell id="161" value="7" style="text;html=1;strokeColor=none;fillColor=none;align=center;verticalAlign=middle;whiteSpace=wrap;rounded=0;fontSize=33;fontStyle=1;strokeWidth=4;" vertex="1" parent="1">
                    <mxGeometry x="777.54" y="1702.5" width="40" height="20" as="geometry"/>
                </mxCell>
                <mxCell id="162" value="8" style="text;html=1;strokeColor=none;fillColor=none;align=center;verticalAlign=middle;whiteSpace=wrap;rounded=0;fontSize=33;fontStyle=0;fontColor=#FF0000;strokeWidth=4;" vertex="1" parent="1">
                    <mxGeometry x="754" y="2375.5" width="40" height="20" as="geometry"/>
                </mxCell>
                <mxCell id="163" value="&lt;b style=&quot;font-size: 27px&quot;&gt;Rambla Motocros&lt;/b&gt;" style="rounded=1;whiteSpace=wrap;html=1;strokeWidth=4;fontSize=27;fillColor=#ffff88;strokeColor=#36393d;" vertex="1" parent="1">
                    <mxGeometry x="837.5" y="1982.5" width="155" height="70" as="geometry"/>
                </mxCell>
                <mxCell id="164" value="&lt;b style=&quot;font-size: 27px&quot;&gt;Blanes&lt;/b&gt;" style="rounded=1;whiteSpace=wrap;html=1;strokeWidth=4;fontSize=27;fillColor=#ffff88;strokeColor=#36393d;" vertex="1" parent="1">
                    <mxGeometry x="342.53999999999996" y="1862.5" width="110" height="40" as="geometry"/>
                </mxCell>
                <mxCell id="165" value="&lt;b style=&quot;font-size: 27px&quot;&gt;Casur&lt;/b&gt;" style="rounded=1;whiteSpace=wrap;html=1;strokeWidth=4;fontSize=27;fillColor=#ffff88;strokeColor=#36393d;" vertex="1" parent="1">
                    <mxGeometry x="755" y="2292.5" width="90" height="42" as="geometry"/>
                </mxCell>
                <mxCell id="166" value="" style="verticalLabelPosition=bottom;align=center;html=1;verticalAlign=top;pointerEvents=1;dashed=0;shape=mxgraph.pid2valves.valve;valveType=gate;defState=closed;strokeWidth=4;fillColor=none;fontSize=17;rotation=15;strokeColor=#0000FF;" vertex="1" parent="1">
                    <mxGeometry x="640" y="2359.5" width="37.54" height="22.5" as="geometry"/>
                </mxCell>
                <mxCell id="167" value="" style="verticalLabelPosition=bottom;align=center;html=1;verticalAlign=top;pointerEvents=1;dashed=0;shape=mxgraph.pid2valves.valve;valveType=gate;defState=closed;strokeWidth=4;fillColor=none;fontSize=17;rotation=-90;strokeColor=#0000FF;" vertex="1" parent="1">
                    <mxGeometry x="670" y="2392.5" width="37.54" height="22.5" as="geometry"/>
                </mxCell>
                <mxCell id="168" value="" style="verticalLabelPosition=bottom;align=center;html=1;verticalAlign=top;pointerEvents=1;dashed=0;shape=mxgraph.pid2valves.valve;valveType=gate;defState=closed;strokeWidth=4;fillColor=none;fontSize=17;rotation=-15;strokeColor=#0000FF;" vertex="1" parent="1">
                    <mxGeometry x="920" y="2415" width="37.54" height="22.5" as="geometry"/>
                </mxCell>
                <mxCell id="169" value="13" style="text;html=1;strokeColor=none;fillColor=none;align=center;verticalAlign=middle;whiteSpace=wrap;rounded=0;fontSize=33;fontStyle=1;strokeWidth=4;" vertex="1" parent="1">
                    <mxGeometry x="1063" y="2752.5" width="40" height="20" as="geometry"/>
                </mxCell>
                <mxCell id="170" value="" style="endArrow=none;html=1;strokeWidth=4;fontSize=33;fillColor=#dae8fc;strokeColor=#6c8ebf;curved=1;shadow=0;sketch=0;" edge="1" parent="1">
                    <mxGeometry x="790" y="1802.5" width="50" height="50" as="geometry">
                        <mxPoint x="1350" y="2432.5" as="sourcePoint"/>
                        <mxPoint x="640" y="1622.5" as="targetPoint"/>
                        <Array as="points">
                            <mxPoint x="1220" y="2262.5"/>
                            <mxPoint x="1140" y="2112.5"/>
                            <mxPoint x="1090" y="2032.5"/>
                            <mxPoint x="1050" y="1982.5"/>
                            <mxPoint x="960" y="1902.5"/>
                            <mxPoint x="810" y="1802.5"/>
                        </Array>
                    </mxGeometry>
                </mxCell>
                <mxCell id="171" value="" style="endArrow=none;html=1;strokeWidth=4;fontSize=33;fillColor=#dae8fc;strokeColor=#6c8ebf;curved=1;shadow=0;sketch=0;" edge="1" parent="1">
                    <mxGeometry x="790" y="1802.5" width="50" height="50" as="geometry">
                        <mxPoint x="1340" y="2442.5" as="sourcePoint"/>
                        <mxPoint x="630" y="1632.5" as="targetPoint"/>
                        <Array as="points">
                            <mxPoint x="1240" y="2312.5"/>
                            <mxPoint x="1190" y="2222.5"/>
                            <mxPoint x="1120" y="2102.5"/>
                            <mxPoint x="1050" y="1992.5"/>
                            <mxPoint x="940" y="1902.5"/>
                            <mxPoint x="790" y="1802.5"/>
                        </Array>
                    </mxGeometry>
                </mxCell>
                <mxCell id="172" value="23" style="text;html=1;strokeColor=none;fillColor=none;align=center;verticalAlign=middle;whiteSpace=wrap;rounded=0;fontSize=33;fontStyle=1;strokeWidth=4;" vertex="1" parent="1">
                    <mxGeometry x="992.5" y="2722.5" width="40" height="20" as="geometry"/>
                </mxCell>
                <mxCell id="173" value="" style="endArrow=none;html=1;strokeWidth=4;" edge="1" parent="1">
                    <mxGeometry width="50" height="50" relative="1" as="geometry">
                        <mxPoint x="-2180.0000000000005" y="3082.5" as="sourcePoint"/>
                        <mxPoint x="-28" y="4302.5" as="targetPoint"/>
                        <Array as="points">
                            <mxPoint x="-2060" y="3162.5"/>
                            <mxPoint x="-1910" y="3232.5"/>
                            <mxPoint x="-1770" y="3292.5"/>
                            <mxPoint x="-1730" y="3342.5"/>
                            <mxPoint x="-1590" y="3362.5"/>
                            <mxPoint x="-1460" y="3372.5"/>
                            <mxPoint x="-1480" y="3422.5"/>
                            <mxPoint x="-1450" y="3432.5"/>
                            <mxPoint x="-1420" y="3402.5"/>
                            <mxPoint x="-1280" y="3442.5"/>
                            <mxPoint x="-1140" y="3472.5"/>
                            <mxPoint x="-900" y="3472.5"/>
                            <mxPoint x="-770" y="3452.5"/>
                            <mxPoint x="-480" y="3362.5"/>
                            <mxPoint x="-440" y="3352.5"/>
                            <mxPoint x="-410" y="3352.5"/>
                            <mxPoint x="-410" y="3362.5"/>
                            <mxPoint x="-470" y="3402.5"/>
                            <mxPoint x="-490" y="3442.5"/>
                            <mxPoint x="-510" y="3492.5"/>
                            <mxPoint x="-530" y="3522.5"/>
                            <mxPoint x="-570" y="3552.5"/>
                            <mxPoint x="-520" y="3632.5"/>
                            <mxPoint x="-500" y="3692.5"/>
                            <mxPoint x="-510" y="3732.5"/>
                            <mxPoint x="-530" y="3772.5"/>
                            <mxPoint x="-600" y="3852.5"/>
                            <mxPoint x="-610" y="3902.5"/>
                            <mxPoint x="-590" y="4042.5"/>
                            <mxPoint x="-590" y="4082.5"/>
                            <mxPoint x="-610" y="4172.5"/>
                            <mxPoint x="-610" y="4232.5"/>
                            <mxPoint x="-600" y="4282.5"/>
                            <mxPoint x="-550" y="4362.5"/>
                            <mxPoint x="-520" y="4432.5"/>
                            <mxPoint x="-490" y="4442.5"/>
                            <mxPoint x="-440" y="4462.5"/>
                            <mxPoint x="-360" y="4522.5"/>
                            <mxPoint x="-310" y="4502.5"/>
                            <mxPoint x="-220" y="4462.5"/>
                            <mxPoint x="-130" y="4382.5"/>
                        </Array>
                    </mxGeometry>
                </mxCell>
                <mxCell id="174" value="" style="endArrow=none;html=1;strokeWidth=4;" edge="1" parent="1">
                    <mxGeometry width="50" height="50" relative="1" as="geometry">
                        <mxPoint x="-1520" y="3366.5" as="sourcePoint"/>
                        <mxPoint x="-1402" y="3181.5" as="targetPoint"/>
                        <Array as="points">
                            <mxPoint x="-1520" y="3352.5"/>
                            <mxPoint x="-1510" y="3332.5"/>
                            <mxPoint x="-1450" y="3322.5"/>
                            <mxPoint x="-1430" y="3302.5"/>
                            <mxPoint x="-1410" y="3262.5"/>
                            <mxPoint x="-1402" y="3222.5"/>
                        </Array>
                    </mxGeometry>
                </mxCell>
                <mxCell id="175" value="" style="verticalLabelPosition=bottom;align=center;html=1;verticalAlign=top;pointerEvents=1;dashed=0;shape=mxgraph.pid2valves.valve;valveType=gate;defState=closed;strokeWidth=4;fillColor=none;fontSize=17;rotation=-75;strokeColor=#0000FF;" vertex="1" parent="1">
                    <mxGeometry x="-1314" y="3428.5" width="37.54" height="22.5" as="geometry"/>
                </mxCell>
                <mxCell id="176" value="" style="verticalLabelPosition=bottom;align=center;html=1;verticalAlign=top;pointerEvents=1;dashed=0;shape=mxgraph.pid2valves.valve;valveType=gate;defState=closed;strokeWidth=4;fillColor=none;fontSize=17;rotation=42;fontColor=#0000FF;strokeColor=#0000FF;" vertex="1" parent="1">
                    <mxGeometry x="-570" y="3529" width="37.54" height="22.5" as="geometry"/>
                </mxCell>
                <mxCell id="177" value="" style="verticalLabelPosition=bottom;align=center;html=1;verticalAlign=top;pointerEvents=1;dashed=0;shape=mxgraph.pid2valves.valve;valveType=gate;defState=closed;strokeWidth=4;fillColor=none;fontSize=17;rotation=90;fontColor=#0000FF;strokeColor=#0000FF;" vertex="1" parent="1">
                    <mxGeometry x="-969" y="3428.5" width="37.54" height="22.5" as="geometry"/>
                </mxCell>
                <mxCell id="178" value="" style="verticalLabelPosition=bottom;align=center;html=1;verticalAlign=top;pointerEvents=1;dashed=0;shape=mxgraph.pid2valves.valve;valveType=gate;defState=closed;strokeWidth=4;fillColor=none;fontSize=17;rotation=-90;strokeColor=#0000FF;" vertex="1" parent="1">
                    <mxGeometry x="-1497.54" y="3314.5" width="37.54" height="22.5" as="geometry"/>
                </mxCell>
                <mxCell id="179" value="" style="endArrow=none;html=1;strokeWidth=4;" edge="1" parent="1">
                    <mxGeometry width="50" height="50" relative="1" as="geometry">
                        <mxPoint x="-806" y="3158.5" as="sourcePoint"/>
                        <mxPoint x="-1039" y="3240.5" as="targetPoint"/>
                        <Array as="points">
                            <mxPoint x="-801" y="3252.5"/>
                            <mxPoint x="-821" y="3322.5"/>
                            <mxPoint x="-841" y="3362.5"/>
                            <mxPoint x="-871" y="3390.5"/>
                            <mxPoint x="-851" y="3440.5"/>
                            <mxPoint x="-911" y="3452.5"/>
                            <mxPoint x="-921" y="3440.5"/>
                            <mxPoint x="-981" y="3440.5"/>
                            <mxPoint x="-989" y="3390.5"/>
                            <mxPoint x="-989" y="3350.5"/>
                            <mxPoint x="-989" y="3342.5"/>
                            <mxPoint x="-1009" y="3300.5"/>
                            <mxPoint x="-1011" y="3270.5"/>
                        </Array>
                    </mxGeometry>
                </mxCell>
                <mxCell id="180" value="" style="endArrow=none;html=1;strokeWidth=4;" edge="1" parent="1">
                    <mxGeometry width="50" height="50" relative="1" as="geometry">
                        <mxPoint x="-920" y="3472.5" as="sourcePoint"/>
                        <mxPoint x="-920" y="3442.5" as="targetPoint"/>
                    </mxGeometry>
                </mxCell>
                <mxCell id="181" value="7103" style="text;html=1;strokeColor=none;fillColor=none;align=center;verticalAlign=middle;whiteSpace=wrap;rounded=0;fontStyle=1;fontSize=33;strokeWidth=4;" vertex="1" parent="1">
                    <mxGeometry x="-1095" y="3255.5" width="40" height="20" as="geometry"/>
                </mxCell>
                <mxCell id="182" value="7104" style="text;html=1;strokeColor=none;fillColor=none;align=center;verticalAlign=middle;whiteSpace=wrap;rounded=0;fontSize=33;fontStyle=1;strokeWidth=4;" vertex="1" parent="1">
                    <mxGeometry x="-1023" y="3208.5" width="40" height="20" as="geometry"/>
                </mxCell>
                <mxCell id="183" value="7102" style="text;html=1;strokeColor=none;fillColor=none;align=center;verticalAlign=middle;whiteSpace=wrap;rounded=0;fontSize=33;fontStyle=1;strokeWidth=4;" vertex="1" parent="1">
                    <mxGeometry x="-1070" y="3303.5" width="40" height="20" as="geometry"/>
                </mxCell>
                <mxCell id="184" value="7101" style="text;html=1;strokeColor=none;fillColor=none;align=center;verticalAlign=middle;whiteSpace=wrap;rounded=0;fontSize=33;fontStyle=1;strokeWidth=4;" vertex="1" parent="1">
                    <mxGeometry x="-963" y="3342.5" width="40" height="20" as="geometry"/>
                </mxCell>
                <mxCell id="185" value="7110" style="text;html=1;strokeColor=none;fillColor=none;align=center;verticalAlign=middle;whiteSpace=wrap;rounded=0;fontSize=33;fontStyle=1;strokeWidth=4;" vertex="1" parent="1">
                    <mxGeometry x="-786" y="3135.5" width="40" height="20" as="geometry"/>
                </mxCell>
                <mxCell id="186" value="7206" style="text;html=1;strokeColor=none;fillColor=none;align=center;verticalAlign=middle;whiteSpace=wrap;rounded=0;fontSize=33;fontStyle=1;strokeWidth=4;" vertex="1" parent="1">
                    <mxGeometry x="-950" y="3562.5" width="40" height="20" as="geometry"/>
                </mxCell>
                <mxCell id="187" value="7205" style="text;html=1;strokeColor=none;fillColor=none;align=center;verticalAlign=middle;whiteSpace=wrap;rounded=0;fontSize=33;fontStyle=1;strokeWidth=4;" vertex="1" parent="1">
                    <mxGeometry x="-860" y="3479.5" width="40" height="20" as="geometry"/>
                </mxCell>
                <mxCell id="188" value="7208" style="text;html=1;strokeColor=none;fillColor=none;align=center;verticalAlign=middle;whiteSpace=wrap;rounded=0;fontSize=33;fontStyle=1;strokeWidth=4;" vertex="1" parent="1">
                    <mxGeometry x="-770" y="3462.5" width="40" height="20" as="geometry"/>
                </mxCell>
                <mxCell id="189" value="7207" style="text;html=1;strokeColor=none;fillColor=none;align=center;verticalAlign=middle;whiteSpace=wrap;rounded=0;fontSize=33;fontStyle=1;strokeWidth=4;" vertex="1" parent="1">
                    <mxGeometry x="-685" y="3442.5" width="40" height="20" as="geometry"/>
                </mxCell>
                <mxCell id="190" value="7011" style="text;html=1;strokeColor=none;fillColor=none;align=center;verticalAlign=middle;whiteSpace=wrap;rounded=0;fontSize=33;fontStyle=1;strokeWidth=4;" vertex="1" parent="1">
                    <mxGeometry x="-586" y="3412.5" width="40" height="20" as="geometry"/>
                </mxCell>
                <mxCell id="191" value="" style="endArrow=none;html=1;strokeWidth=4;fontSize=24;" edge="1" parent="1">
                    <mxGeometry width="50" height="50" relative="1" as="geometry">
                        <mxPoint x="-524" y="4176.5" as="sourcePoint"/>
                        <mxPoint x="-324" y="3151.5" as="targetPoint"/>
                        <Array as="points">
                            <mxPoint x="-518" y="4072.5"/>
                            <mxPoint x="-408" y="4052.5"/>
                            <mxPoint x="-408" y="3802.5"/>
                            <mxPoint x="-420" y="3712.5"/>
                            <mxPoint x="-440" y="3672.5"/>
                            <mxPoint x="-450" y="3622.5"/>
                            <mxPoint x="-450" y="3522.5"/>
                            <mxPoint x="-420" y="3522.5"/>
                            <mxPoint x="-410" y="3472.5"/>
                            <mxPoint x="-410" y="3442.5"/>
                            <mxPoint x="-440" y="3432.5"/>
                            <mxPoint x="-440" y="3412.5"/>
                            <mxPoint x="-410" y="3392.5"/>
                            <mxPoint x="-400" y="3372.5"/>
                            <mxPoint x="-420" y="3332.5"/>
                            <mxPoint x="-420" y="3272.5"/>
                            <mxPoint x="-370" y="3212.5"/>
                            <mxPoint x="-340" y="3192.5"/>
                        </Array>
                    </mxGeometry>
                </mxCell>
                <mxCell id="192" value="" style="endArrow=none;html=1;strokeWidth=4;fontSize=24;" edge="1" parent="1">
                    <mxGeometry width="50" height="50" relative="1" as="geometry">
                        <mxPoint x="-390" y="3242.5" as="sourcePoint"/>
                        <mxPoint x="-540" y="3162.5" as="targetPoint"/>
                        <Array as="points">
                            <mxPoint x="-440" y="3202.5"/>
                            <mxPoint x="-470" y="3222.5"/>
                            <mxPoint x="-480" y="3252.5"/>
                            <mxPoint x="-500" y="3232.5"/>
                            <mxPoint x="-530" y="3222.5"/>
                            <mxPoint x="-530" y="3202.5"/>
                        </Array>
                    </mxGeometry>
                </mxCell>
                <mxCell id="193" value="7004" style="text;html=1;strokeColor=none;fillColor=none;align=center;verticalAlign=middle;whiteSpace=wrap;rounded=0;fontSize=33;fontStyle=1;strokeWidth=4;" vertex="1" parent="1">
                    <mxGeometry x="-600" y="3172.5" width="40" height="20" as="geometry"/>
                </mxCell>
                <mxCell id="194" value="7003&lt;br&gt;" style="text;html=1;strokeColor=none;fillColor=none;align=center;verticalAlign=middle;whiteSpace=wrap;rounded=0;fontSize=33;fontStyle=1;strokeWidth=4;" vertex="1" parent="1">
                    <mxGeometry x="-549" y="3246.5" width="40" height="20" as="geometry"/>
                </mxCell>
                <mxCell id="195" value="7002" style="text;html=1;strokeColor=none;fillColor=none;align=center;verticalAlign=middle;whiteSpace=wrap;rounded=0;fontSize=33;fontStyle=1;strokeWidth=4;" vertex="1" parent="1">
                    <mxGeometry x="-520" y="3275.5" width="40" height="20" as="geometry"/>
                </mxCell>
                <mxCell id="196" value="7020" style="text;html=1;strokeColor=none;fillColor=none;align=center;verticalAlign=middle;whiteSpace=wrap;rounded=0;fontSize=33;fontStyle=1;strokeWidth=4;" vertex="1" parent="1">
                    <mxGeometry x="-309" y="3162.5" width="40" height="20" as="geometry"/>
                </mxCell>
                <mxCell id="197" value="" style="endArrow=none;html=1;strokeWidth=4;fontSize=33;" edge="1" parent="1">
                    <mxGeometry width="50" height="50" relative="1" as="geometry">
                        <mxPoint x="-410" y="3752.5" as="sourcePoint"/>
                        <mxPoint x="40" y="3542.5" as="targetPoint"/>
                        <Array as="points">
                            <mxPoint x="-210" y="3712.5"/>
                            <mxPoint x="-50" y="3642.5"/>
                            <mxPoint x="10" y="3592.5"/>
                        </Array>
                    </mxGeometry>
                </mxCell>
                <mxCell id="198" value="7001" style="text;html=1;strokeColor=none;fillColor=none;align=center;verticalAlign=middle;whiteSpace=wrap;rounded=0;fontSize=33;fontStyle=1;strokeWidth=4;" vertex="1" parent="1">
                    <mxGeometry x="-32" y="3535" width="40" height="20" as="geometry"/>
                </mxCell>
                <mxCell id="199" value="" style="verticalLabelPosition=bottom;align=center;html=1;verticalAlign=top;pointerEvents=1;dashed=0;shape=mxgraph.pid2valves.valve;valveType=gate;defState=closed;strokeWidth=4;fillColor=none;fontSize=17;rotation=0;strokeColor=#0000FF;" vertex="1" parent="1">
                    <mxGeometry x="-1139" y="3478.25" width="37.54" height="22.5" as="geometry"/>
                </mxCell>
                <mxCell id="200" value="" style="verticalLabelPosition=bottom;align=center;html=1;verticalAlign=top;pointerEvents=1;dashed=0;shape=mxgraph.pid2valves.valve;valveType=gate;defState=closed;strokeWidth=4;fillColor=none;fontSize=17;rotation=51;fontColor=#0000FF;strokeColor=#0000FF;" vertex="1" parent="1">
                    <mxGeometry x="-603" y="3558.32" width="37.54" height="22.5" as="geometry"/>
                </mxCell>
                <mxCell id="201" value="" style="endArrow=none;html=1;strokeWidth=4;fontSize=33;" edge="1" parent="1">
                    <mxGeometry width="50" height="50" relative="1" as="geometry">
                        <mxPoint x="-767" y="3751.5" as="sourcePoint"/>
                        <mxPoint x="-567" y="3558.5" as="targetPoint"/>
                        <Array as="points">
                            <mxPoint x="-770" y="3731.5"/>
                            <mxPoint x="-710" y="3691.5"/>
                            <mxPoint x="-630" y="3621.5"/>
                            <mxPoint x="-600" y="3581.5"/>
                        </Array>
                    </mxGeometry>
                </mxCell>
                <mxCell id="202" value="" style="endArrow=none;html=1;strokeWidth=4;fontSize=33;" edge="1" parent="1">
                    <mxGeometry width="50" height="50" relative="1" as="geometry">
                        <mxPoint x="-642" y="3832.5" as="sourcePoint"/>
                        <mxPoint x="-707" y="3689.5" as="targetPoint"/>
                        <Array as="points">
                            <mxPoint x="-651" y="3812.5"/>
                            <mxPoint x="-661" y="3752.5"/>
                        </Array>
                    </mxGeometry>
                </mxCell>
                <mxCell id="203" value="7010" style="text;html=1;strokeColor=none;fillColor=none;align=center;verticalAlign=middle;whiteSpace=wrap;rounded=0;fontSize=33;fontStyle=1;strokeWidth=4;" vertex="1" parent="1">
                    <mxGeometry x="-790" y="3751.5" width="40" height="20" as="geometry"/>
                </mxCell>
                <mxCell id="204" value="7009" style="text;html=1;strokeColor=none;fillColor=none;align=center;verticalAlign=middle;whiteSpace=wrap;rounded=0;fontSize=33;fontStyle=1;strokeWidth=4;" vertex="1" parent="1">
                    <mxGeometry x="-672.5" y="3682.5" width="40" height="20" as="geometry"/>
                </mxCell>
                <mxCell id="205" value="7008" style="text;html=1;strokeColor=none;fillColor=none;align=center;verticalAlign=middle;whiteSpace=wrap;rounded=0;fontSize=33;fontStyle=1;strokeWidth=4;" vertex="1" parent="1">
                    <mxGeometry x="-650" y="3712.5" width="40" height="20" as="geometry"/>
                </mxCell>
                <mxCell id="206" value="7007" style="text;html=1;strokeColor=none;fillColor=none;align=center;verticalAlign=middle;whiteSpace=wrap;rounded=0;fontSize=33;fontStyle=1;strokeWidth=4;" vertex="1" parent="1">
                    <mxGeometry x="-640" y="3751.5" width="40" height="20" as="geometry"/>
                </mxCell>
                <mxCell id="207" value="7006" style="text;html=1;strokeColor=none;fillColor=none;align=center;verticalAlign=middle;whiteSpace=wrap;rounded=0;fontSize=33;fontStyle=1;strokeWidth=4;" vertex="1" parent="1">
                    <mxGeometry x="-632.5" y="3792.5" width="40" height="20" as="geometry"/>
                </mxCell>
                <mxCell id="208" value="7301" style="text;html=1;strokeColor=none;fillColor=none;align=center;verticalAlign=middle;whiteSpace=wrap;rounded=0;fontSize=33;fontStyle=1;strokeWidth=4;" vertex="1" parent="1">
                    <mxGeometry x="-1477" y="3208.5" width="40" height="20" as="geometry"/>
                </mxCell>
                <mxCell id="209" value="7300" style="text;html=1;strokeColor=none;fillColor=none;align=center;verticalAlign=middle;whiteSpace=wrap;rounded=0;fontSize=33;fontStyle=0;fontColor=#FF0000;strokeWidth=4;" vertex="1" parent="1">
                    <mxGeometry x="-1477" y="3172.5" width="40" height="20" as="geometry"/>
                </mxCell>
                <mxCell id="210" value="" style="endArrow=none;html=1;strokeWidth=4;fontSize=33;" edge="1" parent="1">
                    <mxGeometry width="50" height="50" relative="1" as="geometry">
                        <mxPoint x="-1270" y="3612.5" as="sourcePoint"/>
                        <mxPoint x="-1120" y="3472.5" as="targetPoint"/>
                        <Array as="points">
                            <mxPoint x="-1120" y="3612.5"/>
                            <mxPoint x="-1110" y="3582.5"/>
                            <mxPoint x="-1120" y="3522.5"/>
                        </Array>
                    </mxGeometry>
                </mxCell>
                <mxCell id="211" value="7202" style="text;html=1;strokeColor=none;fillColor=none;align=center;verticalAlign=middle;whiteSpace=wrap;rounded=0;fontSize=33;fontStyle=1;strokeWidth=4;" vertex="1" parent="1">
                    <mxGeometry x="-1325" y="3621.5" width="40" height="20" as="geometry"/>
                </mxCell>
                <mxCell id="212" value="7201" style="text;html=1;strokeColor=none;fillColor=none;align=center;verticalAlign=middle;whiteSpace=wrap;rounded=0;fontSize=33;fontStyle=1;strokeWidth=4;" vertex="1" parent="1">
                    <mxGeometry x="-1217" y="3621.5" width="40" height="20" as="geometry"/>
                </mxCell>
                <mxCell id="213" value="&lt;font style=&quot;font-size: 80px&quot;&gt;SECTOR - VA&lt;/font&gt;" style="text;html=1;strokeColor=none;fillColor=none;align=center;verticalAlign=middle;whiteSpace=wrap;rounded=0;fontSize=33;fontStyle=1;strokeWidth=4;" vertex="1" parent="1">
                    <mxGeometry x="-2055" y="3542.5" width="550" height="60" as="geometry"/>
                </mxCell>
                <mxCell id="214" value="&lt;font style=&quot;font-size: 44px&quot;&gt;Actualizado: 04/05/2021&lt;/font&gt;" style="text;html=1;strokeColor=none;fillColor=none;align=center;verticalAlign=middle;whiteSpace=wrap;rounded=0;fontSize=33;fontStyle=1;strokeWidth=4;" vertex="1" parent="1">
                    <mxGeometry x="-2065" y="3642.5" width="570" height="20" as="geometry"/>
                </mxCell>
                <mxCell id="215" value="" style="verticalLabelPosition=bottom;align=center;html=1;verticalAlign=top;pointerEvents=1;dashed=0;shape=mxgraph.pid2valves.valve;valveType=gate;defState=closed;strokeWidth=4;fillColor=none;fontSize=17;rotation=15;fontColor=#0000FF;strokeColor=#0000FF;" vertex="1" parent="1">
                    <mxGeometry x="-425" y="3372.5" width="37.54" height="22.5" as="geometry"/>
                </mxCell>
                <mxCell id="216" value="" style="verticalLabelPosition=bottom;align=center;html=1;verticalAlign=top;pointerEvents=1;dashed=0;shape=mxgraph.pid2valves.valve;valveType=gate;defState=closed;strokeWidth=4;fillColor=none;fontSize=17;rotation=0;fontColor=#0000FF;strokeColor=#0000FF;" vertex="1" parent="1">
                    <mxGeometry x="-438.53999999999996" y="3314.5" width="37.54" height="22.5" as="geometry"/>
                </mxCell>
                <mxCell id="217" value="&lt;b style=&quot;font-size: 27px;&quot;&gt;Pita&lt;/b&gt;" style="rounded=1;whiteSpace=wrap;html=1;strokeWidth=4;fontSize=27;fillColor=#ffff88;strokeColor=#36393d;" vertex="1" parent="1">
                    <mxGeometry x="-1641.5" y="3228.5" width="89" height="47" as="geometry"/>
                </mxCell>
                <mxCell id="218" value="&lt;b style=&quot;font-size: 27px;&quot;&gt;Biosabor&lt;/b&gt;" style="rounded=1;whiteSpace=wrap;html=1;strokeWidth=4;fontSize=27;fillColor=#ffff88;strokeColor=#36393d;" vertex="1" parent="1">
                    <mxGeometry x="-983" y="3248.5" width="149" height="47" as="geometry"/>
                </mxCell>
                <mxCell id="219" value="&lt;b style=&quot;font-size: 27px;&quot;&gt;Acebuche&lt;/b&gt;" style="rounded=1;whiteSpace=wrap;html=1;strokeWidth=4;fontSize=27;fillColor=#ffff88;strokeColor=#36393d;" vertex="1" parent="1">
                    <mxGeometry x="-940" y="3652.5" width="165" height="44.5" as="geometry"/>
                </mxCell>
                <mxCell id="220" value="&lt;b style=&quot;font-size: 27px&quot;&gt;Gorrión&lt;/b&gt;" style="rounded=1;whiteSpace=wrap;html=1;strokeWidth=4;fontSize=27;fillColor=#ffff88;strokeColor=#36393d;" vertex="1" parent="1">
                    <mxGeometry x="-1285" y="3513.82" width="130" height="44.5" as="geometry"/>
                </mxCell>
                <mxCell id="221" value="&lt;b style=&quot;font-size: 27px&quot;&gt;Arqueta Funciones&lt;/b&gt;" style="rounded=1;whiteSpace=wrap;html=1;strokeWidth=4;fontSize=27;fillColor=#ffff88;strokeColor=#36393d;" vertex="1" parent="1">
                    <mxGeometry x="-1070" y="3480.5" width="176.46" height="71" as="geometry"/>
                </mxCell>
                <mxCell id="222" value="&lt;b style=&quot;font-size: 27px&quot;&gt;Monsanto&lt;/b&gt;" style="rounded=1;whiteSpace=wrap;html=1;strokeWidth=4;fontSize=27;fillColor=#ffff88;strokeColor=#36393d;" vertex="1" parent="1">
                    <mxGeometry x="-727" y="3228.5" width="149" height="47" as="geometry"/>
                </mxCell>
                <mxCell id="223" value="&lt;b style=&quot;font-size: 27px&quot;&gt;Pino&lt;/b&gt;" style="rounded=1;whiteSpace=wrap;html=1;strokeWidth=4;fontSize=27;fillColor=#ffff88;strokeColor=#36393d;" vertex="1" parent="1">
                    <mxGeometry x="-383.5" y="3323.5" width="74.5" height="42.5" as="geometry"/>
                </mxCell>
                <mxCell id="224" value="&lt;b style=&quot;font-size: 27px&quot;&gt;UAL&lt;/b&gt;" style="rounded=1;whiteSpace=wrap;html=1;strokeWidth=4;fontSize=27;fillColor=#ffff88;strokeColor=#36393d;" vertex="1" parent="1">
                    <mxGeometry x="30" y="3482.5" width="74.5" height="42.5" as="geometry"/>
                </mxCell>
                <mxCell id="225" value="&lt;b style=&quot;font-size: 27px&quot;&gt;Aloe Vera&lt;/b&gt;" style="rounded=1;whiteSpace=wrap;html=1;strokeWidth=4;fontSize=27;fillColor=#ffff88;strokeColor=#36393d;" vertex="1" parent="1">
                    <mxGeometry x="-304" y="3741.5" width="140" height="40" as="geometry"/>
                </mxCell>
                <mxCell id="226" value="&lt;b style=&quot;font-size: 27px&quot;&gt;Balsa Trancos&lt;/b&gt;" style="rounded=1;whiteSpace=wrap;html=1;strokeWidth=4;fontSize=27;fillColor=#ffff88;strokeColor=#36393d;" vertex="1" parent="1">
                    <mxGeometry x="-60" y="4222.5" width="139" height="70" as="geometry"/>
                </mxCell>
                <mxCell id="286" value="" style="verticalLabelPosition=bottom;align=center;html=1;verticalAlign=top;pointerEvents=1;dashed=0;shape=mxgraph.pid2valves.valve;valveType=gate;defState=closed;strokeWidth=4;fillColor=none;fontSize=17;rotation=23;strokeColor=#0000FF;" vertex="1" parent="1">
                    <mxGeometry x="1411" y="5593.5" width="37.54" height="22.5" as="geometry"/>
                </mxCell>
                <mxCell id="287" value="" style="verticalLabelPosition=bottom;align=center;html=1;verticalAlign=top;pointerEvents=1;dashed=0;shape=mxgraph.pid2valves.valve;valveType=gate;defState=closed;strokeWidth=4;fillColor=none;fontSize=17;rotation=0;strokeColor=#0000FF;" vertex="1" parent="1">
                    <mxGeometry x="1122" y="5310" width="37.54" height="22.5" as="geometry"/>
                </mxCell>
                <mxCell id="288" value="&lt;font style=&quot;font-size: 80px&quot;&gt;SECTOR - VIII&lt;/font&gt;" style="text;html=1;strokeColor=none;fillColor=none;align=center;verticalAlign=middle;whiteSpace=wrap;rounded=0;fontSize=33;fontStyle=1;strokeWidth=4;" vertex="1" parent="1">
                    <mxGeometry x="1629" y="5000" width="550" height="60" as="geometry"/>
                </mxCell>
                <mxCell id="289" value="&lt;font style=&quot;font-size: 44px&quot;&gt;Actualizado: 04/05/2021&lt;/font&gt;" style="text;html=1;strokeColor=none;fillColor=none;align=center;verticalAlign=middle;whiteSpace=wrap;rounded=0;fontSize=33;fontStyle=1;strokeWidth=4;" vertex="1" parent="1">
                    <mxGeometry x="1619" y="5110" width="570" height="20" as="geometry"/>
                </mxCell>
                <mxCell id="290" value="" style="verticalLabelPosition=bottom;align=center;html=1;verticalAlign=top;pointerEvents=1;dashed=0;shape=mxgraph.pid2valves.valve;valveType=gate;defState=closed;strokeWidth=4;fillColor=none;fontSize=17;rotation=84;strokeColor=#0000FF;" vertex="1" parent="1">
                    <mxGeometry x="1098" y="5583" width="37.54" height="22.5" as="geometry"/>
                </mxCell>
                <mxCell id="291" value="" style="verticalLabelPosition=bottom;align=center;html=1;verticalAlign=top;pointerEvents=1;dashed=0;shape=mxgraph.pid2valves.valve;valveType=gate;defState=closed;strokeWidth=4;fillColor=none;fontSize=17;rotation=-75;strokeColor=#0000FF;" vertex="1" parent="1">
                    <mxGeometry x="1150.46" y="5590.5" width="37.54" height="22.5" as="geometry"/>
                </mxCell>
                <mxCell id="292" value="" style="verticalLabelPosition=bottom;align=center;html=1;verticalAlign=top;pointerEvents=1;dashed=0;shape=mxgraph.pid2valves.valve;valveType=gate;defState=closed;strokeWidth=4;fillColor=none;fontSize=17;rotation=0;strokeColor=#0000FF;" vertex="1" parent="1">
                    <mxGeometry x="437.46000000000004" y="5616" width="37.54" height="22.5" as="geometry"/>
                </mxCell>
                <mxCell id="293" value="" style="verticalLabelPosition=bottom;align=center;html=1;verticalAlign=top;pointerEvents=1;dashed=0;shape=mxgraph.pid2valves.valve;valveType=gate;defState=closed;strokeWidth=4;fillColor=none;fontSize=17;rotation=90;strokeColor=#0000FF;" vertex="1" parent="1">
                    <mxGeometry x="384.77" y="5309" width="37.54" height="22.5" as="geometry"/>
                </mxCell>
                <mxCell id="294" value="" style="verticalLabelPosition=bottom;align=center;html=1;verticalAlign=top;pointerEvents=1;dashed=0;shape=mxgraph.pid2valves.valve;valveType=gate;defState=closed;strokeWidth=4;fillColor=none;fontSize=17;rotation=90;strokeColor=#0000FF;" vertex="1" parent="1">
                    <mxGeometry x="464" y="5159.5" width="37.54" height="22.5" as="geometry"/>
                </mxCell>
                <mxCell id="295" value="" style="verticalLabelPosition=bottom;align=center;html=1;verticalAlign=top;pointerEvents=1;dashed=0;shape=mxgraph.pid2valves.valve;valveType=gate;defState=closed;strokeWidth=4;fillColor=none;fontSize=17;rotation=0;strokeColor=#0000FF;" vertex="1" parent="1">
                    <mxGeometry x="426.46000000000004" y="5180" width="37.54" height="22.5" as="geometry"/>
                </mxCell>
                <mxCell id="296" value="" style="endArrow=none;html=1;strokeWidth=4;fontSize=33;" edge="1" parent="1">
                    <mxGeometry width="50" height="50" relative="1" as="geometry">
                        <mxPoint x="1709" y="5812" as="sourcePoint"/>
                        <mxPoint x="1142" y="5303" as="targetPoint"/>
                        <Array as="points">
                            <mxPoint x="1697" y="5751"/>
                            <mxPoint x="1667" y="5681"/>
                            <mxPoint x="1577" y="5501"/>
                            <mxPoint x="1557" y="5501"/>
                            <mxPoint x="1547" y="5561"/>
                            <mxPoint x="1437" y="5591"/>
                            <mxPoint x="1387" y="5681"/>
                            <mxPoint x="1327" y="5681"/>
                            <mxPoint x="1257" y="5661"/>
                            <mxPoint x="1197" y="5631"/>
                            <mxPoint x="1187" y="5601"/>
                            <mxPoint x="1140" y="5601"/>
                        </Array>
                    </mxGeometry>
                </mxCell>
                <mxCell id="297" value="" style="endArrow=none;html=1;strokeWidth=4;fontSize=33;" edge="1" parent="1">
                    <mxGeometry width="50" height="50" relative="1" as="geometry">
                        <mxPoint x="1138" y="5590" as="sourcePoint"/>
                        <mxPoint x="758" y="5840" as="targetPoint"/>
                        <Array as="points">
                            <mxPoint x="1028" y="5610"/>
                            <mxPoint x="928" y="5640"/>
                            <mxPoint x="888" y="5660"/>
                            <mxPoint x="838" y="5710"/>
                        </Array>
                    </mxGeometry>
                </mxCell>
                <mxCell id="298" value="8130" style="text;html=1;strokeColor=none;fillColor=none;align=center;verticalAlign=middle;whiteSpace=wrap;rounded=0;fontSize=33;fontStyle=1;strokeWidth=4;" vertex="1" parent="1">
                    <mxGeometry x="1673" y="5614" width="40" height="20" as="geometry"/>
                </mxCell>
                <mxCell id="299" value="8132" style="text;html=1;strokeColor=none;fillColor=none;align=center;verticalAlign=middle;whiteSpace=wrap;rounded=0;fontSize=33;fontStyle=1;strokeWidth=4;" vertex="1" parent="1">
                    <mxGeometry x="1697" y="5675" width="40" height="20" as="geometry"/>
                </mxCell>
                <mxCell id="300" value="8134" style="text;html=1;strokeColor=none;fillColor=none;align=center;verticalAlign=middle;whiteSpace=wrap;rounded=0;fontSize=33;fontStyle=1;strokeWidth=4;" vertex="1" parent="1">
                    <mxGeometry x="1721" y="5748" width="40" height="20" as="geometry"/>
                </mxCell>
                <mxCell id="301" value="8138" style="text;html=1;strokeColor=none;fillColor=none;align=center;verticalAlign=middle;whiteSpace=wrap;rounded=0;fontSize=33;fontStyle=1;strokeWidth=4;" vertex="1" parent="1">
                    <mxGeometry x="1371" y="5700" width="40" height="20" as="geometry"/>
                </mxCell>
                <mxCell id="302" value="8139" style="text;html=1;strokeColor=none;fillColor=none;align=center;verticalAlign=middle;whiteSpace=wrap;rounded=0;fontSize=33;fontStyle=1;strokeWidth=4;" vertex="1" parent="1">
                    <mxGeometry x="1277" y="5687" width="40" height="20" as="geometry"/>
                </mxCell>
                <mxCell id="303" value="8121" style="text;html=1;strokeColor=none;fillColor=none;align=center;verticalAlign=middle;whiteSpace=wrap;rounded=0;fontSize=33;fontStyle=1;strokeWidth=4;" vertex="1" parent="1">
                    <mxGeometry x="1178" y="5658" width="40" height="20" as="geometry"/>
                </mxCell>
                <mxCell id="304" value="8140" style="text;html=1;strokeColor=none;fillColor=none;align=center;verticalAlign=middle;whiteSpace=wrap;rounded=0;fontSize=33;fontStyle=1;strokeWidth=4;" vertex="1" parent="1">
                    <mxGeometry x="1028" y="5624" width="40" height="20" as="geometry"/>
                </mxCell>
                <mxCell id="305" value="" style="endArrow=none;html=1;strokeWidth=4;fontSize=33;" edge="1" parent="1">
                    <mxGeometry width="50" height="50" relative="1" as="geometry">
                        <mxPoint x="234" y="5210" as="sourcePoint"/>
                        <mxPoint x="604" y="6300" as="targetPoint"/>
                        <Array as="points">
                            <mxPoint x="724" y="5210"/>
                            <mxPoint x="724" y="5930"/>
                            <mxPoint x="696" y="6070"/>
                        </Array>
                    </mxGeometry>
                </mxCell>
                <mxCell id="306" value="8005" style="text;html=1;strokeColor=none;fillColor=none;align=center;verticalAlign=middle;whiteSpace=wrap;rounded=0;fontSize=33;fontStyle=1;strokeWidth=4;" vertex="1" parent="1">
                    <mxGeometry y="5331.5" width="40" height="20" as="geometry"/>
                </mxCell>
                <mxCell id="307" value="8003" style="text;html=1;strokeColor=none;fillColor=none;align=center;verticalAlign=middle;whiteSpace=wrap;rounded=0;fontSize=33;fontStyle=1;strokeWidth=4;" vertex="1" parent="1">
                    <mxGeometry x="83" y="5372.5" width="40" height="20" as="geometry"/>
                </mxCell>
                <mxCell id="308" value="8002" style="text;html=1;strokeColor=none;fillColor=none;align=center;verticalAlign=middle;whiteSpace=wrap;rounded=0;fontSize=33;fontStyle=1;strokeWidth=4;" vertex="1" parent="1">
                    <mxGeometry x="168" y="5331.5" width="40" height="20" as="geometry"/>
                </mxCell>
                <mxCell id="309" value="8007" style="text;html=1;strokeColor=none;fillColor=none;align=center;verticalAlign=middle;whiteSpace=wrap;rounded=0;fontSize=33;fontStyle=1;strokeWidth=4;" vertex="1" parent="1">
                    <mxGeometry x="488" y="5457" width="40" height="20" as="geometry"/>
                </mxCell>
                <mxCell id="310" value="8008" style="text;html=1;strokeColor=none;fillColor=none;align=center;verticalAlign=middle;whiteSpace=wrap;rounded=0;fontSize=33;fontStyle=1;strokeWidth=4;" vertex="1" parent="1">
                    <mxGeometry x="488" y="5498" width="40" height="20" as="geometry"/>
                </mxCell>
                <mxCell id="311" value="8009" style="text;html=1;strokeColor=none;fillColor=none;align=center;verticalAlign=middle;whiteSpace=wrap;rounded=0;fontSize=33;fontStyle=1;strokeWidth=4;" vertex="1" parent="1">
                    <mxGeometry x="488" y="5540" width="40" height="20" as="geometry"/>
                </mxCell>
                <mxCell id="312" value="8010" style="text;html=1;strokeColor=none;fillColor=none;align=center;verticalAlign=middle;whiteSpace=wrap;rounded=0;fontSize=33;fontStyle=1;strokeWidth=4;" vertex="1" parent="1">
                    <mxGeometry x="488" y="5584.25" width="40" height="20" as="geometry"/>
                </mxCell>
                <mxCell id="313" value="8016" style="text;html=1;strokeColor=none;fillColor=none;align=center;verticalAlign=middle;whiteSpace=wrap;rounded=0;fontSize=33;fontStyle=1;strokeWidth=4;" vertex="1" parent="1">
                    <mxGeometry x="488" y="5647" width="40" height="20" as="geometry"/>
                </mxCell>
                <mxCell id="314" value="8011" style="text;html=1;strokeColor=none;fillColor=none;align=center;verticalAlign=middle;whiteSpace=wrap;rounded=0;fontSize=33;fontStyle=1;strokeWidth=4;" vertex="1" parent="1">
                    <mxGeometry x="488" y="5695" width="40" height="20" as="geometry"/>
                </mxCell>
                <mxCell id="315" value="8015" style="text;html=1;strokeColor=none;fillColor=none;align=center;verticalAlign=middle;whiteSpace=wrap;rounded=0;fontSize=33;fontStyle=1;strokeWidth=4;" vertex="1" parent="1">
                    <mxGeometry x="488" y="5748" width="40" height="20" as="geometry"/>
                </mxCell>
                <mxCell id="316" value="8012" style="text;html=1;strokeColor=none;fillColor=none;align=center;verticalAlign=middle;whiteSpace=wrap;rounded=0;fontSize=33;fontStyle=1;strokeWidth=4;" vertex="1" parent="1">
                    <mxGeometry x="488" y="5905" width="40" height="20" as="geometry"/>
                </mxCell>
                <mxCell id="317" value="8014" style="text;html=1;strokeColor=none;fillColor=none;align=center;verticalAlign=middle;whiteSpace=wrap;rounded=0;fontSize=33;fontStyle=1;strokeWidth=4;" vertex="1" parent="1">
                    <mxGeometry x="376.77" y="5830" width="40" height="20" as="geometry"/>
                </mxCell>
                <mxCell id="318" value="8013" style="text;html=1;strokeColor=none;fillColor=none;align=center;verticalAlign=middle;whiteSpace=wrap;rounded=0;fontSize=33;fontStyle=1;strokeWidth=4;" vertex="1" parent="1">
                    <mxGeometry x="488" y="5940" width="40" height="20" as="geometry"/>
                </mxCell>
                <mxCell id="319" value="8000" style="text;html=1;strokeColor=none;fillColor=none;align=center;verticalAlign=middle;whiteSpace=wrap;rounded=0;fontSize=33;fontStyle=1;strokeWidth=4;" vertex="1" parent="1">
                    <mxGeometry x="376.77" y="6390" width="40" height="20" as="geometry"/>
                </mxCell>
                <mxCell id="320" value="8001" style="text;html=1;strokeColor=none;fillColor=none;align=center;verticalAlign=middle;whiteSpace=wrap;rounded=0;fontSize=33;fontStyle=1;strokeWidth=4;" vertex="1" parent="1">
                    <mxGeometry x="352" y="6160" width="40" height="20" as="geometry"/>
                </mxCell>
                <mxCell id="321" value="" style="endArrow=none;html=1;strokeWidth=4;fontSize=33;" edge="1" parent="1">
                    <mxGeometry width="50" height="50" relative="1" as="geometry">
                        <mxPoint x="446" y="5320" as="sourcePoint"/>
                        <mxPoint x="419.00000000000045" y="4863" as="targetPoint"/>
                        <Array as="points">
                            <mxPoint x="445" y="5170"/>
                        </Array>
                    </mxGeometry>
                </mxCell>
                <mxCell id="322" value="" style="endArrow=none;html=1;strokeWidth=4;fontSize=33;" edge="1" parent="1">
                    <mxGeometry width="50" height="50" relative="1" as="geometry">
                        <mxPoint x="446.8599999999997" y="5172" as="sourcePoint"/>
                        <mxPoint x="1484" y="5307" as="targetPoint"/>
                        <Array as="points">
                            <mxPoint x="826.8600000000001" y="5171"/>
                            <mxPoint x="836.8600000000001" y="5301"/>
                        </Array>
                    </mxGeometry>
                </mxCell>
                <mxCell id="323" value="" style="endArrow=none;html=1;strokeWidth=4;fontSize=33;" edge="1" parent="1">
                    <mxGeometry width="50" height="50" relative="1" as="geometry">
                        <mxPoint x="540" y="5390" as="sourcePoint"/>
                        <mxPoint x="1141" y="5339" as="targetPoint"/>
                        <Array as="points">
                            <mxPoint x="828" y="5397"/>
                            <mxPoint x="834" y="5387"/>
                            <mxPoint x="834" y="5337"/>
                        </Array>
                    </mxGeometry>
                </mxCell>
                <mxCell id="324" value="8101" style="text;html=1;strokeColor=none;fillColor=none;align=center;verticalAlign=middle;whiteSpace=wrap;rounded=0;fontSize=33;fontStyle=1;strokeWidth=4;" vertex="1" parent="1">
                    <mxGeometry x="521" y="5139.5" width="40" height="20" as="geometry"/>
                </mxCell>
                <mxCell id="325" value="8103" style="text;html=1;strokeColor=none;fillColor=none;align=center;verticalAlign=middle;whiteSpace=wrap;rounded=0;fontSize=33;fontStyle=1;strokeWidth=4;" vertex="1" parent="1">
                    <mxGeometry x="649" y="5139.5" width="40" height="20" as="geometry"/>
                </mxCell>
                <mxCell id="326" value="8104" style="text;html=1;strokeColor=none;fillColor=none;align=center;verticalAlign=middle;whiteSpace=wrap;rounded=0;fontSize=33;fontStyle=1;strokeWidth=4;" vertex="1" parent="1">
                    <mxGeometry x="718" y="5103" width="40" height="20" as="geometry"/>
                </mxCell>
                <mxCell id="327" value="8105" style="text;html=1;strokeColor=none;fillColor=none;align=center;verticalAlign=middle;whiteSpace=wrap;rounded=0;fontSize=33;fontStyle=1;strokeWidth=4;" vertex="1" parent="1">
                    <mxGeometry x="778" y="5139.5" width="40" height="20" as="geometry"/>
                </mxCell>
                <mxCell id="328" value="8109" style="text;html=1;strokeColor=none;fillColor=none;align=center;verticalAlign=middle;whiteSpace=wrap;rounded=0;fontSize=33;fontStyle=1;strokeWidth=4;" vertex="1" parent="1">
                    <mxGeometry x="1068" y="5239" width="40" height="20" as="geometry"/>
                </mxCell>
                <mxCell id="329" value="8108" style="text;html=1;strokeColor=none;fillColor=none;align=center;verticalAlign=middle;whiteSpace=wrap;rounded=0;fontSize=33;fontStyle=1;strokeWidth=4;" vertex="1" parent="1">
                    <mxGeometry x="1008" y="5273" width="40" height="20" as="geometry"/>
                </mxCell>
                <mxCell id="330" value="8107" style="text;html=1;strokeColor=none;fillColor=none;align=center;verticalAlign=middle;whiteSpace=wrap;rounded=0;fontSize=33;fontStyle=1;strokeWidth=4;" vertex="1" parent="1">
                    <mxGeometry x="936" y="5239" width="40" height="20" as="geometry"/>
                </mxCell>
                <mxCell id="331" value="8106" style="text;html=1;strokeColor=none;fillColor=none;align=center;verticalAlign=middle;whiteSpace=wrap;rounded=0;fontSize=33;fontStyle=1;strokeWidth=4;" vertex="1" parent="1">
                    <mxGeometry x="861.54" y="5270" width="40" height="20" as="geometry"/>
                </mxCell>
                <mxCell id="332" value="8114" style="text;html=1;strokeColor=none;fillColor=none;align=center;verticalAlign=middle;whiteSpace=wrap;rounded=0;fontSize=33;fontStyle=1;strokeWidth=4;" vertex="1" parent="1">
                    <mxGeometry x="1058" y="5350" width="40" height="20" as="geometry"/>
                </mxCell>
                <mxCell id="333" value="8116" style="text;html=1;strokeColor=none;fillColor=none;align=center;verticalAlign=middle;whiteSpace=wrap;rounded=0;fontSize=33;fontStyle=1;strokeWidth=4;" vertex="1" parent="1">
                    <mxGeometry x="968" y="5350" width="40" height="20" as="geometry"/>
                </mxCell>
                <mxCell id="334" value="8117" style="text;html=1;strokeColor=none;fillColor=none;align=center;verticalAlign=middle;whiteSpace=wrap;rounded=0;fontSize=33;fontStyle=1;strokeWidth=4;" vertex="1" parent="1">
                    <mxGeometry x="881" y="5350" width="40" height="20" as="geometry"/>
                </mxCell>
                <mxCell id="335" value="8118" style="text;html=1;strokeColor=none;fillColor=none;align=center;verticalAlign=middle;whiteSpace=wrap;rounded=0;fontSize=33;fontStyle=1;strokeWidth=4;" vertex="1" parent="1">
                    <mxGeometry x="851" y="5392.5" width="40" height="20" as="geometry"/>
                </mxCell>
                <mxCell id="336" value="8119" style="text;html=1;strokeColor=none;fillColor=none;align=center;verticalAlign=middle;whiteSpace=wrap;rounded=0;fontSize=33;fontStyle=1;strokeWidth=4;" vertex="1" parent="1">
                    <mxGeometry x="705" y="5410" width="40" height="20" as="geometry"/>
                </mxCell>
                <mxCell id="337" value="8120" style="text;html=1;strokeColor=none;fillColor=none;align=center;verticalAlign=middle;whiteSpace=wrap;rounded=0;fontSize=33;fontStyle=1;strokeWidth=4;" vertex="1" parent="1">
                    <mxGeometry x="558" y="5410" width="40" height="20" as="geometry"/>
                </mxCell>
                <mxCell id="338" value="8102" style="text;html=1;strokeColor=none;fillColor=none;align=center;verticalAlign=middle;whiteSpace=wrap;rounded=0;fontSize=33;fontStyle=1;strokeWidth=4;" vertex="1" parent="1">
                    <mxGeometry x="589" y="5104" width="40" height="20" as="geometry"/>
                </mxCell>
                <mxCell id="339" value="8110" style="text;html=1;strokeColor=none;fillColor=none;align=center;verticalAlign=middle;whiteSpace=wrap;rounded=0;fontSize=33;fontStyle=1;strokeWidth=4;" vertex="1" parent="1">
                    <mxGeometry x="1166.54" y="5273" width="40" height="20" as="geometry"/>
                </mxCell>
                <mxCell id="340" value="8111" style="text;html=1;strokeColor=none;fillColor=none;align=center;verticalAlign=middle;whiteSpace=wrap;rounded=0;fontSize=33;fontStyle=1;strokeWidth=4;" vertex="1" parent="1">
                    <mxGeometry x="1238" y="5239" width="40" height="20" as="geometry"/>
                </mxCell>
                <mxCell id="341" value="8113" style="text;html=1;strokeColor=none;fillColor=none;align=center;verticalAlign=middle;whiteSpace=wrap;rounded=0;fontSize=33;fontStyle=1;strokeWidth=4;" vertex="1" parent="1">
                    <mxGeometry x="1308" y="5273" width="40" height="20" as="geometry"/>
                </mxCell>
                <mxCell id="342" value="8112" style="text;html=1;strokeColor=none;fillColor=none;align=center;verticalAlign=middle;whiteSpace=wrap;rounded=0;fontSize=33;fontStyle=1;strokeWidth=4;" vertex="1" parent="1">
                    <mxGeometry x="1384" y="5239" width="40" height="20" as="geometry"/>
                </mxCell>
                <mxCell id="343" value="&lt;b style=&quot;font-size: 27px&quot;&gt;Balsa Trancos&lt;/b&gt;" style="rounded=1;whiteSpace=wrap;html=1;strokeWidth=4;fontSize=27;fillColor=#ffff88;strokeColor=#36393d;" vertex="1" parent="1">
                    <mxGeometry x="389" y="4790" width="139" height="70" as="geometry"/>
                </mxCell>
                <mxCell id="344" value="&lt;b style=&quot;font-size: 27px&quot;&gt;Los Cobos&lt;/b&gt;" style="rounded=1;whiteSpace=wrap;html=1;strokeWidth=4;fontSize=27;fillColor=#ffff88;strokeColor=#36393d;" vertex="1" parent="1">
                    <mxGeometry x="1761" y="5625" width="161" height="42" as="geometry"/>
                </mxCell>
            </root>
        </mxGraphModel>
    </diagram>
</mxfile>